{
	"asset":{
		"generator":"Khronos glTF Blender I/O v3.6.27",
		"version":"2.0"
	},
	"extensionsUsed":[
		"KHR_materials_transmission"
	],
	"scene":0,
	"scenes":[
		{
			"name":"Scene",
			"nodes":[
				7
			]
		}
	],
	"nodes":[
		{
			"mesh":0,
			"name":"Box046_Frame_0",
			"translation":[
				0,
				3.814697265625e-06,
				0
			]
		},
		{
			"mesh":1,
			"name":"Box046_Material #25_0",
			"translation":[
				0,
				3.814697265625e-06,
				0
			]
		},
		{
			"mesh":2,
			"name":"Box046_Material #26_0",
			"translation":[
				0,
				3.814697265625e-06,
				0
			]
		},
		{
			"children":[
				0,
				1,
				2
			],
			"name":"Object_4",
			"translation":[
				0,
				3.829657543974463e-06,
				-4.887580871582031e-06
			]
		},
		{
			"children":[
				3
			],
			"name":"Box046",
			"rotation":[
				0,
				0.7071068286895752,
				0,
				0.7071067094802856
			],
			"translation":[
				4.887580871582031e-06,
				-3.8145790313137695e-06,
				0
			]
		},
		{
			"children":[
				4
			],
			"name":"RootNode",
			"translation":[
				0,
				-3.8146381484693848e-06,
				0
			]
		},
		{
			"children":[
				5
			],
			"name":"6578199fe39646888856dd3816050d08.fbx",
			"rotation":[
				0.70710688829422,
				0,
				0,
				0.7071066498756409
			]
		},
		{
			"children":[
				6
			],
			"name":"Sketchfab_model",
			"rotation":[
				0.9999980926513672,
				0,
				0,
				0.0019641811959445477
			],
			"scale":[
				0.011492610909044743,
				0.011492609977722168,
				0.011492609977722168
			],
			"translation":[
				0,
				0.410000205039978,
				0
			]
		}
	],
	"materials":[
		{
			"doubleSided":true,
			"name":"Frame.001",
			"pbrMetallicRoughness":{
				"baseColorFactor":[
					0.9406651854515076,
					0.8940805196762085,
					0.8940805196762085,
					1
				],
				"metallicFactor":0.7395198345184326
			}
		},
		{
			"doubleSided":true,
			"name":"Material_25.001",
			"pbrMetallicRoughness":{
				"baseColorFactor":[
					0.015876293182373047,
					0.015876293182373047,
					0.015876293182373047,
					1
				],
				"metallicFactor":0.04439786449074745,
				"roughnessFactor":0.3919588327407837
			}
		},
		{
			"alphaMode":"BLEND",
			"doubleSided":true,
			"extensions":{
				"KHR_materials_transmission":{
					"transmissionFactor":0.949504554271698
				}
			},
			"name":"Material_26.001",
			"pbrMetallicRoughness":{
				"baseColorFactor":[
					0.5882350206375122,
					0.6313729882240295,
					0.8117650151252747,
					0.25
				],
				"metallicFactor":0,
				"roughnessFactor":0.8929713368415833
			}
		}
	],
	"meshes":[
		{
			"name":"Box046_Frame_0.001",
			"primitives":[
				{
					"attributes":{
						"POSITION":0,
						"NORMAL":1,
						"TEXCOORD_0":2
					},
					"indices":3,
					"material":0
				}
			]
		},
		{
			"name":"Box046_Material #25_0.001",
			"primitives":[
				{
					"attributes":{
						"POSITION":4,
						"NORMAL":5,
						"TEXCOORD_0":6
					},
					"indices":7,
					"material":1
				}
			]
		},
		{
			"name":"Box046_Material #26_0.001",
			"primitives":[
				{
					"attributes":{
						"POSITION":8,
						"NORMAL":9,
						"TEXCOORD_0":10
					},
					"indices":11,
					"material":2
				}
			]
		}
	],
	"accessors":[
		{
			"bufferView":0,
			"componentType":5126,
			"count":32,
			"max":[
				22,
				32,
				1.1412880420684814
			],
			"min":[
				-22,
				-32,
				1.1242412328720093
			],
			"type":"VEC3"
		},
		{
			"bufferView":1,
			"componentType":5126,
			"count":32,
			"type":"VEC3"
		},
		{
			"bufferView":2,
			"componentType":5126,
			"count":32,
			"type":"VEC2"
		},
		{
			"bufferView":3,
			"componentType":5123,
			"count":72,
			"type":"SCALAR"
		},
		{
			"bufferView":4,
			"componentType":5126,
			"count":1652,
			"max":[
				25,
				35,
				1.8467257022857666
			],
			"min":[
				-25,
				-35,
				0
			],
			"type":"VEC3"
		},
		{
			"bufferView":5,
			"componentType":5126,
			"count":1652,
			"type":"VEC3"
		},
		{
			"bufferView":6,
			"componentType":5126,
			"count":1652,
			"type":"VEC2"
		},
		{
			"bufferView":7,
			"componentType":5123,
			"count":6222,
			"type":"SCALAR"
		},
		{
			"bufferView":8,
			"componentType":5126,
			"count":24,
			"max":[
				22.0156307220459,
				31.999961853027344,
				1.6757595539093018
			],
			"min":[
				-21.984373092651367,
				-32,
				1.412703037261963
			],
			"type":"VEC3"
		},
		{
			"bufferView":9,
			"componentType":5126,
			"count":24,
			"type":"VEC3"
		},
		{
			"bufferView":10,
			"componentType":5126,
			"count":24,
			"type":"VEC2"
		},
		{
			"bufferView":11,
			"componentType":5123,
			"count":30,
			"type":"SCALAR"
		}
	],
	"bufferViews":[
		{
			"buffer":0,
			"byteLength":384,
			"byteOffset":0,
			"target":34962
		},
		{
			"buffer":0,
			"byteLength":384,
			"byteOffset":384,
			"target":34962
		},
		{
			"buffer":0,
			"byteLength":256,
			"byteOffset":768,
			"target":34962
		},
		{
			"buffer":0,
			"byteLength":144,
			"byteOffset":1024,
			"target":34963
		},
		{
			"buffer":0,
			"byteLength":19824,
			"byteOffset":1168,
			"target":34962
		},
		{
			"buffer":0,
			"byteLength":19824,
			"byteOffset":20992,
			"target":34962
		},
		{
			"buffer":0,
			"byteLength":13216,
			"byteOffset":40816,
			"target":34962
		},
		{
			"buffer":0,
			"byteLength":12444,
			"byteOffset":54032,
			"target":34963
		},
		{
			"buffer":0,
			"byteLength":288,
			"byteOffset":66476,
			"target":34962
		},
		{
			"buffer":0,
			"byteLength":288,
			"byteOffset":66764,
			"target":34962
		},
		{
			"buffer":0,
			"byteLength":192,
			"byteOffset":67052,
			"target":34962
		},
		{
			"buffer":0,
			"byteLength":60,
			"byteOffset":67244,
			"target":34963
		}
	],
	"buffers":[
		{
			"byteLength":67304,
			"uri":"scene.bin"
		}
	]
}
