{
  "accessors": [
    {
      "bufferView": 2,
      "componentType": 5126,
      "count": 183,
      "max": [
        0.8871189951896667,
        0.9201189875602722,
        0.01356200035661459
      ],
      "min": [
        -0.8871899843215942,
        -0.9351549744606018,
        -0.3344930112361908
      ],
      "type": "VEC3"
    },
    {
      "bufferView": 2,
      "byteOffset": 2196,
      "componentType": 5126,
      "count": 183,
      "max": [
        1.0,
        1.0,
        1.0
      ],
      "min": [
        -1.0,
        -1.0,
        -1.0
      ],
      "type": "VEC3"
    },
    {
      "bufferView": 3,
      "componentType": 5126,
      "count": 183,
      "max": [
        1.0,
        1.0,
        5.162007255421486e-06,
        1.0
      ],
      "min": [
        -7.612222543684766e-05,
        -0.788858950138092,
        -0.6145821213722229,
        -1.0
      ],
      "type": "VEC4"
    },
    {
      "bufferView": 1,
      "componentType": 5126,
      "count": 183,
      "max": [
        0.9994459748268127,
        1.0007100105285645
      ],
      "min": [
        0.0014329999685287476,
        0.0012120000319555402
      ],
      "type": "VEC2"
    },
    {
      "bufferView": 0,
      "componentType": 5125,
      "count": 384,
      "type": "SCALAR"
    },
    {
      "bufferView": 2,
      "byteOffset": 4392,
      "componentType": 5126,
      "count": 5661,
      "max": [
        0.4745340049266815,
        0.288085013628006,
        1.5956499576568604
      ],
      "min": [
        -0.47064900398254395,
        -0.23240800201892853,
        0.00010699999984353781
      ],
      "type": "VEC3"
    },
    {
      "bufferView": 2,
      "byteOffset": 72324,
      "componentType": 5126,
      "count": 5661,
      "max": [
        0.9999226331710815,
        0.9989694952964783,
        0.9999819993972778
      ],
      "min": [
        -0.9996242523193359,
        -0.999527096748352,
        -0.9999980330467224
      ],
      "type": "VEC3"
    },
    {
      "bufferView": 3,
      "byteOffset": 2928,
      "componentType": 5126,
      "count": 5661,
      "max": [
        0.9999983906745911,
        0.9998143315315247,
        0.9997114539146423,
        1.0
      ],
      "min": [
        -0.9999579191207886,
        -0.9997313618659973,
        -0.9999573230743408,
        -1.0
      ],
      "type": "VEC4"
    },
    {
      "bufferView": 1,
      "byteOffset": 1464,
      "componentType": 5126,
      "count": 5661,
      "max": [
        0.994862973690033,
        0.6435539722442627
      ],
      "min": [
        0.004550999961793423,
        0.004474000073969364
      ],
      "type": "VEC2"
    },
    {
      "bufferView": 0,
      "byteOffset": 1536,
      "componentType": 5125,
      "count": 17148,
      "type": "SCALAR"
    },
    {
      "bufferView": 2,
      "byteOffset": 140256,
      "componentType": 5126,
      "count": 3920,
      "max": [
        0.3856300115585327,
        0.15276199579238892,
        1.6113660335540771
      ],
      "min": [
        -0.43845099210739136,
        -0.2275419980287552,
        0.37710899114608765
      ],
      "type": "VEC3"
    },
    {
      "bufferView": 2,
      "byteOffset": 187296,
      "componentType": 5126,
      "count": 3920,
      "max": [
        0.998645544052124,
        0.9997521042823792,
        0.9986616373062134
      ],
      "min": [
        -0.9999693036079407,
        -0.9993720054626465,
        -0.993727445602417
      ],
      "type": "VEC3"
    },
    {
      "bufferView": 1,
      "byteOffset": 46752,
      "componentType": 5126,
      "count": 3920,
      "max": [
        0.9869139790534973,
        0.9915289878845215
      ],
      "min": [
        0.02390100061893463,
        0.503715991973877
      ],
      "type": "VEC2"
    },
    {
      "bufferView": 0,
      "byteOffset": 70128,
      "componentType": 5125,
      "count": 10614,
      "type": "SCALAR"
    }
  ],
  "asset": {
    "extras": {
      "author": "RaulV2 (https://sketchfab.com/RaulV2)",
      "license": "CC-BY-4.0 (http://creativecommons.org/licenses/by/4.0/)",
      "source": "https://sketchfab.com/3d-models/seiya-tenkai-hen-16b67a9ca6274f109bd3c949d46bf5dc",
      "title": "Seiya Tenkai Hen"
    },
    "generator": "Sketchfab-12.67.0",
    "version": "2.0"
  },
  "bufferViews": [
    {
      "buffer": 0,
      "byteLength": 112584,
      "name": "floatBufferViews",
      "target": 34963
    },
    {
      "buffer": 0,
      "byteLength": 78112,
      "byteOffset": 112584,
      "byteStride": 8,
      "name": "floatBufferViews",
      "target": 34962
    },
    {
      "buffer": 0,
      "byteLength": 234336,
      "byteOffset": 190696,
      "byteStride": 12,
      "name": "floatBufferViews",
      "target": 34962
    },
    {
      "buffer": 0,
      "byteLength": 93504,
      "byteOffset": 425032,
      "byteStride": 16,
      "name": "floatBufferViews",
      "target": 34962
    }
  ],
  "buffers": [
    {
      "byteLength": 518536,
      "uri": "scene.bin"
    }
  ],
  "images": [
    {
      "uri": "textures/base_base.png_baseColor.jpeg"
    },
    {
      "uri": "textures/base_base.png_normal.jpeg"
    },
    {
      "uri": "textures/model_cpo_baseColor.jpeg"
    },
    {
      "uri": "textures/model_cpo_normal.jpeg"
    },
    {
      "uri": "textures/perso_cpo_baseColor.jpeg"
    }
  ],
  "materials": [
    {
      "doubleSided": true,
      "name": "base_base.png",
      "normalTexture": {
        "index": 1
      },
      "pbrMetallicRoughness": {
        "baseColorTexture": {
          "index": 0
        },
        "metallicFactor": 0.0,
        "roughnessFactor": 0.9225739746329382
      }
    },
    {
      "doubleSided": true,
      "name": "model_cpo",
      "normalTexture": {
        "index": 3
      },
      "pbrMetallicRoughness": {
        "baseColorTexture": {
          "index": 2
        },
        "roughnessFactor": 0.15314588159470777
      }
    },
    {
      "doubleSided": true,
      "name": "perso_cpo",
      "pbrMetallicRoughness": {
        "baseColorTexture": {
          "index": 4
        },
        "metallicFactor": 0.0,
        "roughnessFactor": 0.8434915419926713
      }
    }
  ],
  "meshes": [
    {
      "name": "Object_0",
      "primitives": [
        {
          "attributes": {
            "NORMAL": 1,
            "POSITION": 0,
            "TANGENT": 2,
            "TEXCOORD_0": 3
          },
          "indices": 4,
          "material": 0,
          "mode": 4
        }
      ]
    },
    {
      "name": "Object_1",
      "primitives": [
        {
          "attributes": {
            "NORMAL": 6,
            "POSITION": 5,
            "TANGENT": 7,
            "TEXCOORD_0": 8
          },
          "indices": 9,
          "material": 1,
          "mode": 4
        }
      ]
    },
    {
      "name": "Object_2",
      "primitives": [
        {
          "attributes": {
            "NORMAL": 11,
            "POSITION": 10,
            "TEXCOORD_0": 12
          },
          "indices": 13,
          "material": 2,
          "mode": 4
        }
      ]
    }
  ],
  "nodes": [
    {
      "children": [
        1
      ],
      "matrix": [
        1.0,
        0.0,
        0.0,
        0.0,
        0.0,
        2.220446049250313e-16,
        -1.0,
        0.0,
        0.0,
        1.0,
        2.220446049250313e-16,
        0.0,
        0.0,
        0.0,
        0.0,
        1.0
      ],
      "name": "Sketchfab_model"
    },
    {
      "children": [
        2,
        3,
        4
      ],
      "name": "Seiya TH Stand.obj.cleaner.materialmerger.gles"
    },
    {
      "mesh": 0,
      "name": "Object_2"
    },
    {
      "mesh": 1,
      "name": "Object_3"
    },
    {
      "mesh": 2,
      "name": "Object_4"
    }
  ],
  "samplers": [
    {
      "magFilter": 9729,
      "minFilter": 9987,
      "wrapS": 10497,
      "wrapT": 10497
    }
  ],
  "scene": 0,
  "scenes": [
    {
      "name": "Sketchfab_Scene",
      "nodes": [
        0
      ]
    }
  ],
  "textures": [
    {
      "sampler": 0,
      "source": 0
    },
    {
      "sampler": 0,
      "source": 1
    },
    {
      "sampler": 0,
      "source": 2
    },
    {
      "sampler": 0,
      "source": 3
    },
    {
      "sampler": 0,
      "source": 4
    }
  ]
}
