{
	"asset":{
		"generator":"Khronos glTF Blender I/O v3.6.27",
		"version":"2.0"
	},
	"scene":0,
	"scenes":[
		{
			"name":"Scene",
			"nodes":[
				3
			]
		}
	],
	"nodes":[
		{
			"mesh":0,
			"name":"Object_3"
		},
		{
			"mesh":1,
			"name":"Object_4"
		},
		{
			"children":[
				0,
				1
			],
			"name":"Seiya TH Stand.obj.cleaner.materialmerger.gles"
		},
		{
			"children":[
				2
			],
			"name":"Sketchfab_model",
			"rotation":[
				-0.70710688829422,
				0,
				0,
				0.7071066498756409
			]
		}
	],
	"materials":[
		{
			"doubleSided":true,
			"name":"model_cpo",
			"normalTexture":{
				"index":0
			},
			"pbrMetallicRoughness":{
				"baseColorTexture":{
					"index":1
				},
				"roughnessFactor":0.15314587950706482
			}
		},
		{
			"doubleSided":true,
			"name":"perso_cpo",
			"pbrMetallicRoughness":{
				"baseColorTexture":{
					"index":2
				},
				"metallicFactor":0,
				"roughnessFactor":0.8434915542602539
			}
		}
	],
	"meshes":[
		{
			"name":"Object_1",
			"primitives":[
				{
					"attributes":{
						"POSITION":0,
						"NORMAL":1,
						"TEXCOORD_0":2
					},
					"indices":3,
					"material":0
				}
			]
		},
		{
			"name":"Object_2",
			"primitives":[
				{
					"attributes":{
						"POSITION":4,
						"NORMAL":5,
						"TEXCOORD_0":6
					},
					"indices":7,
					"material":1
				}
			]
		}
	],
	"textures":[
		{
			"sampler":0,
			"source":0
		},
		{
			"sampler":0,
			"source":1
		},
		{
			"sampler":0,
			"source":2
		}
	],
	"images":[
		{
			"mimeType":"image/jpeg",
			"name":"model_cpo_normal",
			"uri":"model_cpo_normal.jpg"
		},
		{
			"mimeType":"image/jpeg",
			"name":"model_cpo_baseColor",
			"uri":"model_cpo_baseColor.jpg"
		},
		{
			"mimeType":"image/jpeg",
			"name":"perso_cpo_baseColor",
			"uri":"perso_cpo_baseColor.jpg"
		}
	],
	"accessors":[
		{
			"bufferView":0,
			"componentType":5126,
			"count":5684,
			"max":[
				0.4745340049266815,
				0.288085013628006,
				1.5956499576568604
			],
			"min":[
				-0.47064900398254395,
				-0.23240800201892853,
				0.00010699999984353781
			],
			"type":"VEC3"
		},
		{
			"bufferView":1,
			"componentType":5126,
			"count":5684,
			"type":"VEC3"
		},
		{
			"bufferView":2,
			"componentType":5126,
			"count":5684,
			"type":"VEC2"
		},
		{
			"bufferView":3,
			"componentType":5123,
			"count":17148,
			"type":"SCALAR"
		},
		{
			"bufferView":4,
			"componentType":5126,
			"count":3932,
			"max":[
				0.3856300115585327,
				0.15276199579238892,
				1.6113660335540771
			],
			"min":[
				-0.43845099210739136,
				-0.2275419980287552,
				0.37710899114608765
			],
			"type":"VEC3"
		},
		{
			"bufferView":5,
			"componentType":5126,
			"count":3932,
			"type":"VEC3"
		},
		{
			"bufferView":6,
			"componentType":5126,
			"count":3932,
			"type":"VEC2"
		},
		{
			"bufferView":7,
			"componentType":5123,
			"count":10614,
			"type":"SCALAR"
		}
	],
	"bufferViews":[
		{
			"buffer":0,
			"byteLength":68208,
			"byteOffset":0,
			"target":34962
		},
		{
			"buffer":0,
			"byteLength":68208,
			"byteOffset":68208,
			"target":34962
		},
		{
			"buffer":0,
			"byteLength":45472,
			"byteOffset":136416,
			"target":34962
		},
		{
			"buffer":0,
			"byteLength":34296,
			"byteOffset":181888,
			"target":34963
		},
		{
			"buffer":0,
			"byteLength":47184,
			"byteOffset":216184,
			"target":34962
		},
		{
			"buffer":0,
			"byteLength":47184,
			"byteOffset":263368,
			"target":34962
		},
		{
			"buffer":0,
			"byteLength":31456,
			"byteOffset":310552,
			"target":34962
		},
		{
			"buffer":0,
			"byteLength":21228,
			"byteOffset":342008,
			"target":34963
		}
	],
	"samplers":[
		{
			"magFilter":9729,
			"minFilter":9987
		}
	],
	"buffers":[
		{
			"byteLength":363236,
			"uri":"scene2.bin"
		}
	]
}
