{
	"asset":{
		"generator":"Khronos glTF Blender I/O v3.6.27",
		"version":"2.0"
	},
	"scene":0,
	"scenes":[
		{
			"name":"Scene",
			"nodes":[
				6
			]
		}
	],
	"nodes":[
		{
			"mesh":0,
			"name":"Object_3",
			"scale":[
				0.20000000298023224,
				0.20000000298023224,
				0.20000000298023224
			]
		},
		{
			"mesh":1,
			"name":"Object_4",
			"scale":[
				0.20000000298023224,
				0.20000000298023224,
				0.20000000298023224
			]
		},
		{
			"mesh":2,
			"name":"Object_5",
			"scale":[
				0.20000000298023224,
				0.20000000298023224,
				0.20000000298023224
			]
		},
		{
			"mesh":3,
			"name":"Object_6",
			"scale":[
				0.20000000298023224,
				0.20000000298023224,
				0.20000000298023224
			]
		},
		{
			"children":[
				0,
				1,
				2,
				3
			],
			"name":"Object_2",
			"translation":[
				15.273488998413086,
				0.231230229139328,
				-1.2722742557525635
			]
		},
		{
			"children":[
				4
			],
			"name":"Door External.obj.cleaner.gles",
			"translation":[
				-19.153581619262695,
				-3.4159200191497803,
				-41.75692367553711
			]
		},
		{
			"children":[
				5
			],
			"name":"Sketchfab_model",
			"rotation":[
				-0.70710688829422,
				0,
				0,
				0.7071066498756409
			],
			"translation":[
				0,
				43.27159881591797,
				0
			]
		}
	],
	"materials":[
		{
			"doubleSided":true,
			"name":"Material__185",
			"pbrMetallicRoughness":{}
		},
		{
			"doubleSided":true,
			"name":"Telaio_Legno_1",
			"pbrMetallicRoughness":{}
		},
		{
			"alphaMode":"BLEND",
			"doubleSided":true,
			"name":"wire_224086086",
			"pbrMetallicRoughness":{}
		}
	],
	"meshes":[
		{
			"name":"Object_0",
			"primitives":[
				{
					"attributes":{
						"POSITION":0,
						"NORMAL":1,
						"TEXCOORD_0":2
					},
					"indices":3,
					"material":0
				}
			]
		},
		{
			"name":"Object_1",
			"primitives":[
				{
					"attributes":{
						"POSITION":4,
						"NORMAL":5,
						"TEXCOORD_0":6
					},
					"indices":7,
					"material":0
				}
			]
		},
		{
			"name":"Object_2",
			"primitives":[
				{
					"attributes":{
						"POSITION":8,
						"NORMAL":9,
						"TEXCOORD_0":10
					},
					"indices":11,
					"material":1
				}
			]
		},
		{
			"name":"Object_3",
			"primitives":[
				{
					"attributes":{
						"POSITION":12,
						"NORMAL":13,
						"TEXCOORD_0":14
					},
					"indices":15,
					"material":2
				}
			]
		}
	],
	"accessors":[
		{
			"bufferView":0,
			"componentType":5126,
			"count":67834,
			"max":[
				38.306663513183594,
				6.8312273025512695,
				78.68571472167969
			],
			"min":[
				0,
				0,
				2.087848663330078
			],
			"type":"VEC3"
		},
		{
			"bufferView":1,
			"componentType":5126,
			"count":67834,
			"type":"VEC3"
		},
		{
			"bufferView":2,
			"componentType":5126,
			"count":67834,
			"type":"VEC2"
		},
		{
			"bufferView":3,
			"componentType":5125,
			"count":196089,
			"type":"SCALAR"
		},
		{
			"bufferView":4,
			"componentType":5126,
			"count":27150,
			"max":[
				38.30494689941406,
				6.781145095825195,
				77.35203552246094
			],
			"min":[
				0.0008907318115234375,
				0.0010619163513183594,
				2.087848663330078
			],
			"type":"VEC3"
		},
		{
			"bufferView":5,
			"componentType":5126,
			"count":27150,
			"type":"VEC3"
		},
		{
			"bufferView":6,
			"componentType":5126,
			"count":27150,
			"type":"VEC2"
		},
		{
			"bufferView":7,
			"componentType":5123,
			"count":50337,
			"type":"SCALAR"
		},
		{
			"bufferView":8,
			"componentType":5126,
			"count":4101,
			"max":[
				37.82590103149414,
				4.230830192565918,
				83.51385498046875
			],
			"min":[
				0.24467086791992188,
				2.4039649963378906,
				0
			],
			"type":"VEC3"
		},
		{
			"bufferView":9,
			"componentType":5126,
			"count":4101,
			"type":"VEC3"
		},
		{
			"bufferView":10,
			"componentType":5126,
			"count":4101,
			"type":"VEC2"
		},
		{
			"bufferView":11,
			"componentType":5123,
			"count":7308,
			"type":"SCALAR"
		},
		{
			"bufferView":12,
			"componentType":5126,
			"count":1998,
			"max":[
				33.25873947143555,
				3.586872100830078,
				78.68571472167969
			],
			"min":[
				4.811832427978516,
				3.4615299701690674,
				41.88528060913086
			],
			"type":"VEC3"
		},
		{
			"bufferView":13,
			"componentType":5126,
			"count":1998,
			"type":"VEC3"
		},
		{
			"bufferView":14,
			"componentType":5126,
			"count":1998,
			"type":"VEC2"
		},
		{
			"bufferView":15,
			"componentType":5123,
			"count":7920,
			"type":"SCALAR"
		}
	],
	"bufferViews":[
		{
			"buffer":0,
			"byteLength":814008,
			"byteOffset":0,
			"target":34962
		},
		{
			"buffer":0,
			"byteLength":814008,
			"byteOffset":814008,
			"target":34962
		},
		{
			"buffer":0,
			"byteLength":542672,
			"byteOffset":1628016,
			"target":34962
		},
		{
			"buffer":0,
			"byteLength":784356,
			"byteOffset":2170688,
			"target":34963
		},
		{
			"buffer":0,
			"byteLength":325800,
			"byteOffset":2955044,
			"target":34962
		},
		{
			"buffer":0,
			"byteLength":325800,
			"byteOffset":3280844,
			"target":34962
		},
		{
			"buffer":0,
			"byteLength":217200,
			"byteOffset":3606644,
			"target":34962
		},
		{
			"buffer":0,
			"byteLength":100674,
			"byteOffset":3823844,
			"target":34963
		},
		{
			"buffer":0,
			"byteLength":49212,
			"byteOffset":3924520,
			"target":34962
		},
		{
			"buffer":0,
			"byteLength":49212,
			"byteOffset":3973732,
			"target":34962
		},
		{
			"buffer":0,
			"byteLength":32808,
			"byteOffset":4022944,
			"target":34962
		},
		{
			"buffer":0,
			"byteLength":14616,
			"byteOffset":4055752,
			"target":34963
		},
		{
			"buffer":0,
			"byteLength":23976,
			"byteOffset":4070368,
			"target":34962
		},
		{
			"buffer":0,
			"byteLength":23976,
			"byteOffset":4094344,
			"target":34962
		},
		{
			"buffer":0,
			"byteLength":15984,
			"byteOffset":4118320,
			"target":34962
		},
		{
			"buffer":0,
			"byteLength":15840,
			"byteOffset":4134304,
			"target":34963
		}
	],
	"buffers":[
		{
			"byteLength":4150144,
			"uri":"scene.bin"
		}
	]
}
