{
	"asset":{
		"generator":"Khronos glTF Blender I/O v3.6.27",
		"version":"2.0"
	},
	"scene":0,
	"scenes":[
		{
			"name":"Scene",
			"nodes":[
				13
			]
		}
	],
	"nodes":[
		{
			"mesh":0,
			"name":"Box001_Material #25_0"
		},
		{
			"children":[
				0
			],
			"name":"Box001",
			"rotation":[
				-0.7071067690849304,
				0,
				0,
				0.7071068286895752
			],
			"scale":[
				2.5399997234344482,
				2.5399999618530273,
				2.5399999618530273
			],
			"translation":[
				141.23170471191406,
				0,
				-97.13581085205078
			]
		},
		{
			"mesh":1,
			"name":"Object_Material #28_0"
		},
		{
			"children":[
				2
			],
			"name":"Object",
			"rotation":[
				-0.7071067690849304,
				0,
				0,
				0.7071068286895752
			],
			"scale":[
				2.5399997234344482,
				2.5399999618530273,
				2.5399999618530273
			],
			"translation":[
				141.23170471191406,
				0,
				-97.13581085205078
			]
		},
		{
			"mesh":2,
			"name":"Object001_Material #27_0"
		},
		{
			"children":[
				4
			],
			"name":"Object001",
			"rotation":[
				-0.7071067690849304,
				0,
				0,
				0.7071068286895752
			],
			"scale":[
				2.5399997234344482,
				2.5399999618530273,
				2.5399999618530273
			],
			"translation":[
				141.23170471191406,
				0,
				-97.13581085205078
			]
		},
		{
			"mesh":3,
			"name":"Plane001_Material #26_0",
			"translation":[
				0,
				-2.89694253297057e-06,
				1.2767604857799597e-05
			]
		},
		{
			"children":[
				6
			],
			"name":"Plane001",
			"rotation":[
				-0.70710688829422,
				0,
				0,
				0.7071066498756409
			],
			"scale":[
				2.7196907997131348,
				2.6765825748443604,
				2.5400002002716064
			],
			"translation":[
				121.231689453125,
				269.3486328125,
				-97.13581848144531
			]
		},
		{
			"mesh":4,
			"name":"Shape002_Material #25_0"
		},
		{
			"children":[
				8
			],
			"name":"Object_8",
			"translation":[
				-23.622039794921875,
				4.232949777360773e-06,
				-96.3582534790039
			]
		},
		{
			"children":[
				9
			],
			"name":"Shape002",
			"rotation":[
				-0.7071067690849304,
				0,
				0,
				0.7071068286895752
			],
			"scale":[
				2.5399997234344482,
				2.5399999618530273,
				2.5399999618530273
			],
			"translation":[
				201.231689453125,
				259.44586181640625,
				-97.13580322265625
			]
		},
		{
			"children":[
				1,
				3,
				5,
				7,
				10
			],
			"name":"RootNode"
		},
		{
			"children":[
				11
			],
			"name":"04be6ab01ecd4b1d99b94dca99152371.fbx",
			"rotation":[
				0.70710688829422,
				0,
				0,
				0.7071066498756409
			]
		},
		{
			"children":[
				12
			],
			"name":"Sketchfab_model",
			"rotation":[
				-0.70710688829422,
				0,
				0,
				0.7071066498756409
			],
			"scale":[
				0.01310430746525526,
				0.01310430932790041,
				0.01310430932790041
			],
			"translation":[
				-1.77755606174469,
				0.21414214372634888,
				0
			]
		}
	],
	"materials":[
		{
			"doubleSided":true,
			"name":"Material_25",
			"normalTexture":{
				"index":0
			},
			"pbrMetallicRoughness":{
				"baseColorTexture":{
					"index":1
				},
				"metallicRoughnessTexture":{
					"index":2
				}
			}
		},
		{
			"doubleSided":true,
			"name":"Material_28",
			"normalTexture":{
				"index":3
			},
			"pbrMetallicRoughness":{
				"baseColorTexture":{
					"index":4
				},
				"metallicRoughnessTexture":{
					"index":5
				}
			}
		},
		{
			"doubleSided":true,
			"name":"Material_27",
			"normalTexture":{
				"index":6
			},
			"occlusionTexture":{
				"index":7
			},
			"pbrMetallicRoughness":{
				"baseColorTexture":{
					"index":8
				},
				"metallicRoughnessTexture":{
					"index":7
				}
			}
		},
		{
			"doubleSided":true,
			"name":"Material_26",
			"normalTexture":{
				"index":9
			},
			"occlusionTexture":{
				"index":10
			},
			"pbrMetallicRoughness":{
				"baseColorTexture":{
					"index":11
				},
				"metallicRoughnessTexture":{
					"index":10
				},
				"roughnessFactor":0.8999999761581421
			}
		}
	],
	"meshes":[
		{
			"name":"Box001_Material #25_0",
			"primitives":[
				{
					"attributes":{
						"POSITION":0,
						"NORMAL":1,
						"TEXCOORD_0":2
					},
					"indices":3,
					"material":0
				}
			]
		},
		{
			"name":"Object_Material #28_0",
			"primitives":[
				{
					"attributes":{
						"POSITION":4,
						"NORMAL":5,
						"TEXCOORD_0":6
					},
					"indices":7,
					"material":1
				}
			]
		},
		{
			"name":"Object001_Material #27_0",
			"primitives":[
				{
					"attributes":{
						"POSITION":8,
						"NORMAL":9,
						"TEXCOORD_0":10
					},
					"indices":11,
					"material":2
				}
			]
		},
		{
			"name":"Plane001_Material #26_0",
			"primitives":[
				{
					"attributes":{
						"POSITION":12,
						"NORMAL":13,
						"TEXCOORD_0":14
					},
					"indices":15,
					"material":3
				}
			]
		},
		{
			"name":"Shape002_Material #25_0",
			"primitives":[
				{
					"attributes":{
						"POSITION":16,
						"NORMAL":17,
						"TEXCOORD_0":18
					},
					"indices":19,
					"material":0
				}
			]
		}
	],
	"textures":[
		{
			"sampler":0,
			"source":0
		},
		{
			"sampler":0,
			"source":1
		},
		{
			"sampler":0,
			"source":2
		},
		{
			"sampler":0,
			"source":3
		},
		{
			"sampler":0,
			"source":4
		},
		{
			"sampler":0,
			"source":5
		},
		{
			"sampler":0,
			"source":6
		},
		{
			"sampler":0,
			"source":7
		},
		{
			"sampler":0,
			"source":8
		},
		{
			"sampler":0,
			"source":9
		},
		{
			"sampler":0,
			"source":10
		},
		{
			"sampler":0,
			"source":11
		}
	],
	"images":[
		{
			"mimeType":"image/jpeg",
			"name":"Image_2",
			"uri":"Image_2.jpg"
		},
		{
			"mimeType":"image/jpeg",
			"name":"Image_0",
			"uri":"Image_0.jpg"
		},
		{
			"mimeType":"image/png",
			"name":"Image_1",
			"uri":"Image_1.png"
		},
		{
			"mimeType":"image/jpeg",
			"name":"Image_5",
			"uri":"Image_5.jpg"
		},
		{
			"mimeType":"image/jpeg",
			"name":"Image_3",
			"uri":"Image_3.jpg"
		},
		{
			"mimeType":"image/png",
			"name":"Image_4",
			"uri":"Image_4.png"
		},
		{
			"mimeType":"image/jpeg",
			"name":"Image_11",
			"uri":"Image_11.jpg"
		},
		{
			"mimeType":"image/png",
			"name":"Image_10",
			"uri":"Image_10.png"
		},
		{
			"mimeType":"image/jpeg",
			"name":"Image_9",
			"uri":"Image_9.jpg"
		},
		{
			"mimeType":"image/jpeg",
			"name":"Image_8",
			"uri":"Image_8.jpg"
		},
		{
			"mimeType":"image/png",
			"name":"Image_7",
			"uri":"Image_7.png"
		},
		{
			"mimeType":"image/jpeg",
			"name":"Image_6",
			"uri":"Image_6.jpg"
		}
	],
	"accessors":[
		{
			"bufferView":0,
			"componentType":5126,
			"count":1112,
			"max":[
				154.3586883544922,
				120.89413452148438,
				155.2709503173828
			],
			"min":[
				-110.16131591796875,
				-120.89413452148438,
				-1.2585154763655737e-05
			],
			"type":"VEC3"
		},
		{
			"bufferView":1,
			"componentType":5126,
			"count":1112,
			"type":"VEC3"
		},
		{
			"bufferView":2,
			"componentType":5126,
			"count":1112,
			"type":"VEC2"
		},
		{
			"bufferView":3,
			"componentType":5123,
			"count":2358,
			"type":"SCALAR"
		},
		{
			"bufferView":4,
			"componentType":5126,
			"count":88,
			"max":[
				154.3586883544922,
				122.0472412109375,
				0
			],
			"min":[
				-108.26773071289062,
				-120.89411926269531,
				-15.748031616210938
			],
			"type":"VEC3"
		},
		{
			"bufferView":5,
			"componentType":5126,
			"count":88,
			"type":"VEC3"
		},
		{
			"bufferView":6,
			"componentType":5126,
			"count":88,
			"type":"VEC2"
		},
		{
			"bufferView":7,
			"componentType":5123,
			"count":180,
			"type":"SCALAR"
		},
		{
			"bufferView":8,
			"componentType":5126,
			"count":2428,
			"max":[
				153.51060485839844,
				120.04605102539062,
				85.3766098022461
			],
			"min":[
				-106.26653289794922,
				-120.04605865478516,
				-6.947011570446193e-06
			],
			"type":"VEC3"
		},
		{
			"bufferView":9,
			"componentType":5126,
			"count":2428,
			"type":"VEC3"
		},
		{
			"bufferView":10,
			"componentType":5126,
			"count":2428,
			"type":"VEC2"
		},
		{
			"bufferView":11,
			"componentType":5123,
			"count":3774,
			"type":"SCALAR"
		},
		{
			"bufferView":12,
			"componentType":5126,
			"count":2104,
			"max":[
				162.18862915039062,
				128.15203857421875,
				52.28248977661133
			],
			"min":[
				-103.38374328613281,
				-126.84970092773438,
				-5.657601356506348
			],
			"type":"VEC3"
		},
		{
			"bufferView":13,
			"componentType":5126,
			"count":2104,
			"type":"VEC3"
		},
		{
			"bufferView":14,
			"componentType":5126,
			"count":2104,
			"type":"VEC2"
		},
		{
			"bufferView":15,
			"componentType":5123,
			"count":4614,
			"type":"SCALAR"
		},
		{
			"bufferView":16,
			"componentType":5126,
			"count":267,
			"max":[
				158.5672607421875,
				125.03793334960938,
				100.52965545654297
			],
			"min":[
				-111.25840759277344,
				-125.03792572021484,
				88.54370880126953
			],
			"type":"VEC3"
		},
		{
			"bufferView":17,
			"componentType":5126,
			"count":267,
			"type":"VEC3"
		},
		{
			"bufferView":18,
			"componentType":5126,
			"count":267,
			"type":"VEC2"
		},
		{
			"bufferView":19,
			"componentType":5123,
			"count":537,
			"type":"SCALAR"
		}
	],
	"bufferViews":[
		{
			"buffer":0,
			"byteLength":13344,
			"byteOffset":0,
			"target":34962
		},
		{
			"buffer":0,
			"byteLength":13344,
			"byteOffset":13344,
			"target":34962
		},
		{
			"buffer":0,
			"byteLength":8896,
			"byteOffset":26688,
			"target":34962
		},
		{
			"buffer":0,
			"byteLength":4716,
			"byteOffset":35584,
			"target":34963
		},
		{
			"buffer":0,
			"byteLength":1056,
			"byteOffset":40300,
			"target":34962
		},
		{
			"buffer":0,
			"byteLength":1056,
			"byteOffset":41356,
			"target":34962
		},
		{
			"buffer":0,
			"byteLength":704,
			"byteOffset":42412,
			"target":34962
		},
		{
			"buffer":0,
			"byteLength":360,
			"byteOffset":43116,
			"target":34963
		},
		{
			"buffer":0,
			"byteLength":29136,
			"byteOffset":43476,
			"target":34962
		},
		{
			"buffer":0,
			"byteLength":29136,
			"byteOffset":72612,
			"target":34962
		},
		{
			"buffer":0,
			"byteLength":19424,
			"byteOffset":101748,
			"target":34962
		},
		{
			"buffer":0,
			"byteLength":7548,
			"byteOffset":121172,
			"target":34963
		},
		{
			"buffer":0,
			"byteLength":25248,
			"byteOffset":128720,
			"target":34962
		},
		{
			"buffer":0,
			"byteLength":25248,
			"byteOffset":153968,
			"target":34962
		},
		{
			"buffer":0,
			"byteLength":16832,
			"byteOffset":179216,
			"target":34962
		},
		{
			"buffer":0,
			"byteLength":9228,
			"byteOffset":196048,
			"target":34963
		},
		{
			"buffer":0,
			"byteLength":3204,
			"byteOffset":205276,
			"target":34962
		},
		{
			"buffer":0,
			"byteLength":3204,
			"byteOffset":208480,
			"target":34962
		},
		{
			"buffer":0,
			"byteLength":2136,
			"byteOffset":211684,
			"target":34962
		},
		{
			"buffer":0,
			"byteLength":1074,
			"byteOffset":213820,
			"target":34963
		}
	],
	"samplers":[
		{
			"magFilter":9729,
			"minFilter":9987
		}
	],
	"buffers":[
		{
			"byteLength":214896,
			"uri":"scene.bin"
		}
	]
}
