{
	"asset":{
		"generator":"Khronos glTF Blender I/O v3.6.27",
		"version":"2.0"
	},
	"scene":0,
	"scenes":[
		{
			"name":"Scene",
			"nodes":[
				2
			]
		}
	],
	"nodes":[
		{
			"mesh":0,
			"name":"Object_2"
		},
		{
			"children":[
				0
			],
			"name":"model.obj.cleaner.materialmerger.gles"
		},
		{
			"children":[
				1
			],
			"name":"Sketchfab_model",
			"rotation":[
				-0.7071069478988647,
				0,
				0,
				0.7071066498756409
			],
			"scale":[
				3.3141777515411377,
				3.314178228378296,
				3.314178228378296
			],
			"translation":[
				0,
				0.612584114074707,
				0
			]
		}
	],
	"materials":[
		{
			"alphaCutoff":0.9380567073822021,
			"alphaMode":"MASK",
			"doubleSided":true,
			"name":"material_0.001",
			"pbrMetallicRoughness":{}
		}
	],
	"meshes":[
		{
			"name":"Object_0.002",
			"primitives":[
				{
					"attributes":{
						"POSITION":0,
						"NORMAL":1,
						"TEXCOORD_0":2
					},
					"indices":3,
					"material":0
				}
			]
		}
	],
	"accessors":[
		{
			"bufferView":0,
			"componentType":5126,
			"count":22373,
			"max":[
				0.09843336045742035,
				0.13541239500045776,
				0.16093790531158447
			],
			"min":[
				-0.10408339649438858,
				-0.09269359707832336,
				-0.1372411996126175
			],
			"type":"VEC3"
		},
		{
			"bufferView":1,
			"componentType":5126,
			"count":22373,
			"type":"VEC3"
		},
		{
			"bufferView":2,
			"componentType":5126,
			"count":22373,
			"type":"VEC2"
		},
		{
			"bufferView":3,
			"componentType":5123,
			"count":104598,
			"type":"SCALAR"
		}
	],
	"bufferViews":[
		{
			"buffer":0,
			"byteLength":268476,
			"byteOffset":0,
			"target":34962
		},
		{
			"buffer":0,
			"byteLength":268476,
			"byteOffset":268476,
			"target":34962
		},
		{
			"buffer":0,
			"byteLength":178984,
			"byteOffset":536952,
			"target":34962
		},
		{
			"buffer":0,
			"byteLength":209196,
			"byteOffset":715936,
			"target":34963
		}
	],
	"buffers":[
		{
			"byteLength":925132,
			"uri":"data:application/octet-stream;base64,"
		}
	]
}
