{
	"asset":{
		"generator":"Khronos glTF Blender I/O v3.6.27",
		"version":"2.0"
	},
	"scene":0,
	"scenes":[
		{
			"name":"Scene",
			"nodes":[
				27
			]
		}
	],
	"nodes":[
		{
			"mesh":0,
			"name":"bril_03 - Default_0",
			"translation":[
				-6.67572021484375e-06,
				-9.5367431640625e-06,
				3.0517578125e-05
			]
		},
		{
			"children":[
				0
			],
			"name":"Object_4",
			"translation":[
				58.95189666748047,
				38.09569549560547,
				82.44949340820312
			]
		},
		{
			"children":[
				1
			],
			"name":"bril",
			"rotation":[
				-0.06259868294000626,
				-0.22441433370113373,
				-0.02715251035988331,
				0.9721020460128784
			],
			"translation":[
				-191.77597045898438,
				184.39418029785156,
				189.33209228515625
			]
		},
		{
			"mesh":1,
			"name":"bril001_08 - Default_0",
			"translation":[
				-1.2057062122039497e-05,
				0,
				-1.9073486328125e-05
			]
		},
		{
			"children":[
				3
			],
			"name":"Object_7",
			"translation":[
				58.95191955566406,
				38.095703125,
				82.44952392578125
			]
		},
		{
			"children":[
				4
			],
			"name":"bril001",
			"rotation":[
				-0.06388940662145615,
				0.44934630393981934,
				0.032238978892564774,
				0.8904867768287659
			],
			"translation":[
				137.83078002929688,
				171.22512817382812,
				201.3286590576172
			]
		},
		{
			"mesh":2,
			"name":"bril002_09 - Default_0",
			"translation":[
				0,
				-3.3035874366760254e-05,
				0
			]
		},
		{
			"children":[
				6
			],
			"name":"Object_10",
			"translation":[
				58.951908111572266,
				38.095699310302734,
				82.44950103759766
			]
		},
		{
			"children":[
				7
			],
			"name":"bril002",
			"rotation":[
				-0.07852170616388321,
				0.08528681844472885,
				-0.0039544301107525826,
				0.9932496547698975
			],
			"translation":[
				-21.52375030517578,
				256.1201477050781,
				-107.55791473388672
			]
		},
		{
			"mesh":3,
			"name":"bril003_21 - Default_0",
			"translation":[
				3.814697265625e-06,
				1.811981201171875e-05,
				-3.4332275390625e-05
			]
		},
		{
			"children":[
				9
			],
			"name":"Object_13",
			"translation":[
				58.95192337036133,
				38.09572219848633,
				82.44950866699219
			]
		},
		{
			"children":[
				10
			],
			"name":"bril003",
			"rotation":[
				-0.06963548064231873,
				0.3099788427352905,
				0.022771550342440605,
				0.9479163885116577
			],
			"translation":[
				318.16259765625,
				300.7323303222656,
				-94.4732894897461
			]
		},
		{
			"mesh":4,
			"name":"bril004_02 - Default_0",
			"translation":[
				5.195947778702248e-06,
				2.5987625122070312e-05,
				-6.67572021484375e-06
			]
		},
		{
			"children":[
				12
			],
			"name":"Object_26",
			"translation":[
				58.951908111572266,
				38.09566879272461,
				82.44950866699219
			]
		},
		{
			"children":[
				13
			],
			"name":"bril004",
			"rotation":[
				-0.03761632367968559,
				-0.826542854309082,
				-0.0556345172226429,
				0.5588530898094177
			],
			"translation":[
				167.36428833007812,
				374.26385498046875,
				-375.5212097167969
			]
		},
		{
			"mesh":5,
			"name":"Cylinder001_13 - Default_0",
			"translation":[
				0,
				9.852840776147787e-06,
				0
			]
		},
		{
			"children":[
				15
			],
			"name":"Cylinder001",
			"rotation":[
				-0.70710688829422,
				0,
				0,
				0.7071066498756409
			],
			"scale":[
				1.1935001611709595,
				1.19350004196167,
				1.19350004196167
			],
			"translation":[
				-18.544158935546875,
				-19.750715255737305,
				-92.59540557861328
			]
		},
		{
			"mesh":6,
			"name":"Cylinder002_13 - Default_0",
			"translation":[
				0,
				2.223446017524111e-06,
				0
			]
		},
		{
			"children":[
				17
			],
			"name":"Cylinder002",
			"rotation":[
				-0.70710688829422,
				0,
				0,
				0.7071066498756409
			],
			"scale":[
				1.1935001611709595,
				1.19350004196167,
				1.19350004196167
			],
			"translation":[
				320.896240234375,
				-19.750715255737305,
				-90.00146484375
			]
		},
		{
			"mesh":7,
			"name":"Cylinder003_13 - Default_0",
			"translation":[
				3.814697265625e-06,
				3.2741023460403085e-05,
				0
			]
		},
		{
			"children":[
				19
			],
			"name":"Cylinder003",
			"rotation":[
				-0.70710688829422,
				0,
				0,
				0.7071066498756409
			],
			"scale":[
				1.1935001611709595,
				1.19350004196167,
				1.19350004196167
			],
			"translation":[
				151.72451782226562,
				-19.750715255737305,
				-382.7447204589844
			]
		},
		{
			"mesh":8,
			"name":"Cylinder004_13 - Default_0",
			"translation":[
				0,
				2.223446017524111e-06,
				0
			]
		},
		{
			"children":[
				21
			],
			"name":"Cylinder004",
			"rotation":[
				-0.70710688829422,
				0,
				0,
				0.7071066498756409
			],
			"scale":[
				1.1935001611709595,
				1.19350004196167,
				1.19350004196167
			],
			"translation":[
				149.27955627441406,
				-19.750715255737305,
				203.37478637695312
			]
		},
		{
			"mesh":9,
			"name":"Cylinder005_13 - Default_0",
			"translation":[
				-1.52587890625e-05,
				2.223446017524111e-06,
				0
			]
		},
		{
			"children":[
				23
			],
			"name":"Cylinder005",
			"rotation":[
				-0.70710688829422,
				0,
				0,
				0.7071066498756409
			],
			"scale":[
				1.1935001611709595,
				1.19350004196167,
				1.19350004196167
			],
			"translation":[
				-190.50473022460938,
				-19.750715255737305,
				200.43096923828125
			]
		},
		{
			"children":[
				2,
				5,
				8,
				11,
				14,
				16,
				18,
				20,
				22,
				24
			],
			"name":"RootNode",
			"translation":[
				-7.62939453125e-06,
				0,
				0
			]
		},
		{
			"children":[
				25
			],
			"name":"d8ec8749f95a4559b0cb417d47d97918.fbx",
			"rotation":[
				0.70710688829422,
				0,
				0,
				0.7071066498756409
			],
			"scale":[
				0.009999998845160007,
				0.009999999776482582,
				0.009999999776482582
			]
		},
		{
			"children":[
				26
			],
			"name":"Sketchfab_model",
			"rotation":[
				-0.70710688829422,
				0,
				0,
				0.7071066498756409
			],
			"scale":[
				0.2241879105567932,
				0.2241879403591156,
				0.2241879403591156
			],
			"translation":[
				-0.19034899771213531,
				0,
				0
			]
		}
	],
	"materials":[
		{
			"alphaMode":"BLEND",
			"doubleSided":true,
			"name":"03_-_Default.002",
			"pbrMetallicRoughness":{}
		},
		{
			"alphaMode":"BLEND",
			"doubleSided":true,
			"name":"08_-_Default.002",
			"pbrMetallicRoughness":{}
		},
		{
			"alphaMode":"BLEND",
			"doubleSided":true,
			"name":"09_-_Default.002",
			"pbrMetallicRoughness":{}
		},
		{
			"alphaMode":"BLEND",
			"doubleSided":true,
			"name":"21_-_Default.002",
			"pbrMetallicRoughness":{}
		},
		{
			"alphaMode":"BLEND",
			"doubleSided":true,
			"name":"02_-_Default.002",
			"pbrMetallicRoughness":{}
		},
		{
			"doubleSided":true,
			"name":"13_-_Default.002",
			"pbrMetallicRoughness":{}
		}
	],
	"meshes":[
		{
			"name":"bril_03 - Default_0.002",
			"primitives":[
				{
					"attributes":{
						"POSITION":0,
						"NORMAL":1,
						"TEXCOORD_0":2
					},
					"indices":3,
					"material":0
				}
			]
		},
		{
			"name":"bril001_08 - Default_0.002",
			"primitives":[
				{
					"attributes":{
						"POSITION":4,
						"NORMAL":5,
						"TEXCOORD_0":6
					},
					"indices":3,
					"material":1
				}
			]
		},
		{
			"name":"bril002_09 - Default_0.002",
			"primitives":[
				{
					"attributes":{
						"POSITION":7,
						"NORMAL":8,
						"TEXCOORD_0":9
					},
					"indices":3,
					"material":2
				}
			]
		},
		{
			"name":"bril003_21 - Default_0.002",
			"primitives":[
				{
					"attributes":{
						"POSITION":10,
						"NORMAL":11,
						"TEXCOORD_0":12
					},
					"indices":3,
					"material":3
				}
			]
		},
		{
			"name":"bril004_02 - Default_0.002",
			"primitives":[
				{
					"attributes":{
						"POSITION":13,
						"NORMAL":14,
						"TEXCOORD_0":15
					},
					"indices":3,
					"material":4
				}
			]
		},
		{
			"name":"Cylinder001_13 - Default_0.002",
			"primitives":[
				{
					"attributes":{
						"POSITION":16,
						"NORMAL":17,
						"TEXCOORD_0":18
					},
					"indices":19,
					"material":5
				}
			]
		},
		{
			"name":"Cylinder002_13 - Default_0.002",
			"primitives":[
				{
					"attributes":{
						"POSITION":20,
						"NORMAL":21,
						"TEXCOORD_0":22
					},
					"indices":23,
					"material":5
				}
			]
		},
		{
			"name":"Cylinder003_13 - Default_0.002",
			"primitives":[
				{
					"attributes":{
						"POSITION":24,
						"NORMAL":25,
						"TEXCOORD_0":26
					},
					"indices":27,
					"material":5
				}
			]
		},
		{
			"name":"Cylinder004_13 - Default_0.002",
			"primitives":[
				{
					"attributes":{
						"POSITION":28,
						"NORMAL":29,
						"TEXCOORD_0":30
					},
					"indices":31,
					"material":5
				}
			]
		},
		{
			"name":"Cylinder005_13 - Default_0.002",
			"primitives":[
				{
					"attributes":{
						"POSITION":32,
						"NORMAL":33,
						"TEXCOORD_0":34
					},
					"indices":35,
					"material":5
				}
			]
		}
	],
	"accessors":[
		{
			"bufferView":0,
			"componentType":5126,
			"count":6250,
			"max":[
				50.491241455078125,
				7.701916217803955,
				15.142187118530273
			],
			"min":[
				-168.3950653076172,
				-83.89334106445312,
				-180.04119873046875
			],
			"type":"VEC3"
		},
		{
			"bufferView":1,
			"componentType":5126,
			"count":6250,
			"type":"VEC3"
		},
		{
			"bufferView":2,
			"componentType":5126,
			"count":6250,
			"type":"VEC2"
		},
		{
			"bufferView":3,
			"componentType":5123,
			"count":18429,
			"type":"SCALAR"
		},
		{
			"bufferView":4,
			"componentType":5126,
			"count":6250,
			"max":[
				50.491241455078125,
				7.701916217803955,
				15.142187118530273
			],
			"min":[
				-168.3950653076172,
				-83.89334106445312,
				-180.04119873046875
			],
			"type":"VEC3"
		},
		{
			"bufferView":5,
			"componentType":5126,
			"count":6250,
			"type":"VEC3"
		},
		{
			"bufferView":6,
			"componentType":5126,
			"count":6250,
			"type":"VEC2"
		},
		{
			"bufferView":7,
			"componentType":5126,
			"count":6250,
			"max":[
				50.491241455078125,
				7.701916217803955,
				15.142187118530273
			],
			"min":[
				-168.3950653076172,
				-83.89334106445312,
				-180.04119873046875
			],
			"type":"VEC3"
		},
		{
			"bufferView":8,
			"componentType":5126,
			"count":6250,
			"type":"VEC3"
		},
		{
			"bufferView":9,
			"componentType":5126,
			"count":6250,
			"type":"VEC2"
		},
		{
			"bufferView":10,
			"componentType":5126,
			"count":6250,
			"max":[
				50.491241455078125,
				7.701916217803955,
				15.142187118530273
			],
			"min":[
				-168.3950653076172,
				-83.89334106445312,
				-180.04119873046875
			],
			"type":"VEC3"
		},
		{
			"bufferView":11,
			"componentType":5126,
			"count":6250,
			"type":"VEC3"
		},
		{
			"bufferView":12,
			"componentType":5126,
			"count":6250,
			"type":"VEC2"
		},
		{
			"bufferView":13,
			"componentType":5126,
			"count":6250,
			"max":[
				50.491241455078125,
				7.701916217803955,
				15.142187118530273
			],
			"min":[
				-168.3950653076172,
				-83.89334106445312,
				-180.04119873046875
			],
			"type":"VEC3"
		},
		{
			"bufferView":14,
			"componentType":5126,
			"count":6250,
			"type":"VEC3"
		},
		{
			"bufferView":15,
			"componentType":5126,
			"count":6250,
			"type":"VEC2"
		},
		{
			"bufferView":16,
			"componentType":5126,
			"count":570,
			"max":[
				141.76028442382812,
				141.74977111816406,
				204.4303436279297
			],
			"min":[
				-141.71826171875,
				-141.74977111816406,
				0
			],
			"type":"VEC3"
		},
		{
			"bufferView":17,
			"componentType":5126,
			"count":570,
			"type":"VEC3"
		},
		{
			"bufferView":18,
			"componentType":5126,
			"count":570,
			"type":"VEC2"
		},
		{
			"bufferView":19,
			"componentType":5123,
			"count":1536,
			"type":"SCALAR"
		},
		{
			"bufferView":20,
			"componentType":5126,
			"count":832,
			"max":[
				141.76028442382812,
				141.74090576171875,
				240.50628662109375
			],
			"min":[
				-141.76028442382812,
				-141.74090576171875,
				0
			],
			"type":"VEC3"
		},
		{
			"bufferView":21,
			"componentType":5126,
			"count":832,
			"type":"VEC3"
		},
		{
			"bufferView":22,
			"componentType":5126,
			"count":832,
			"type":"VEC2"
		},
		{
			"bufferView":23,
			"componentType":5123,
			"count":2268,
			"type":"SCALAR"
		},
		{
			"bufferView":24,
			"componentType":5126,
			"count":941,
			"max":[
				141.76028442382812,
				141.74380493164062,
				303.0379333496094
			],
			"min":[
				-141.76028442382812,
				-141.74380493164062,
				0
			],
			"type":"VEC3"
		},
		{
			"bufferView":25,
			"componentType":5126,
			"count":941,
			"type":"VEC3"
		},
		{
			"bufferView":26,
			"componentType":5126,
			"count":941,
			"type":"VEC2"
		},
		{
			"bufferView":27,
			"componentType":5123,
			"count":2460,
			"type":"SCALAR"
		},
		{
			"bufferView":28,
			"componentType":5126,
			"count":704,
			"max":[
				141.76028442382812,
				141.7537078857422,
				130.3063201904297
			],
			"min":[
				-141.7339630126953,
				-141.75369262695312,
				0
			],
			"type":"VEC3"
		},
		{
			"bufferView":29,
			"componentType":5126,
			"count":704,
			"type":"VEC3"
		},
		{
			"bufferView":30,
			"componentType":5126,
			"count":704,
			"type":"VEC2"
		},
		{
			"bufferView":31,
			"componentType":5123,
			"count":1944,
			"type":"SCALAR"
		},
		{
			"bufferView":32,
			"componentType":5126,
			"count":782,
			"max":[
				141.76028442382812,
				141.76028442382812,
				142.42782592773438
			],
			"min":[
				-141.76028442382812,
				-141.76028442382812,
				0
			],
			"type":"VEC3"
		},
		{
			"bufferView":33,
			"componentType":5126,
			"count":782,
			"type":"VEC3"
		},
		{
			"bufferView":34,
			"componentType":5126,
			"count":782,
			"type":"VEC2"
		},
		{
			"bufferView":35,
			"componentType":5123,
			"count":2148,
			"type":"SCALAR"
		}
	],
	"bufferViews":[
		{
			"buffer":0,
			"byteLength":75000,
			"byteOffset":0,
			"target":34962
		},
		{
			"buffer":0,
			"byteLength":75000,
			"byteOffset":75000,
			"target":34962
		},
		{
			"buffer":0,
			"byteLength":50000,
			"byteOffset":150000,
			"target":34962
		},
		{
			"buffer":0,
			"byteLength":36858,
			"byteOffset":200000,
			"target":34963
		},
		{
			"buffer":0,
			"byteLength":75000,
			"byteOffset":236860,
			"target":34962
		},
		{
			"buffer":0,
			"byteLength":75000,
			"byteOffset":311860,
			"target":34962
		},
		{
			"buffer":0,
			"byteLength":50000,
			"byteOffset":386860,
			"target":34962
		},
		{
			"buffer":0,
			"byteLength":75000,
			"byteOffset":436860,
			"target":34962
		},
		{
			"buffer":0,
			"byteLength":75000,
			"byteOffset":511860,
			"target":34962
		},
		{
			"buffer":0,
			"byteLength":50000,
			"byteOffset":586860,
			"target":34962
		},
		{
			"buffer":0,
			"byteLength":75000,
			"byteOffset":636860,
			"target":34962
		},
		{
			"buffer":0,
			"byteLength":75000,
			"byteOffset":711860,
			"target":34962
		},
		{
			"buffer":0,
			"byteLength":50000,
			"byteOffset":786860,
			"target":34962
		},
		{
			"buffer":0,
			"byteLength":75000,
			"byteOffset":836860,
			"target":34962
		},
		{
			"buffer":0,
			"byteLength":75000,
			"byteOffset":911860,
			"target":34962
		},
		{
			"buffer":0,
			"byteLength":50000,
			"byteOffset":986860,
			"target":34962
		},
		{
			"buffer":0,
			"byteLength":6840,
			"byteOffset":1036860,
			"target":34962
		},
		{
			"buffer":0,
			"byteLength":6840,
			"byteOffset":1043700,
			"target":34962
		},
		{
			"buffer":0,
			"byteLength":4560,
			"byteOffset":1050540,
			"target":34962
		},
		{
			"buffer":0,
			"byteLength":3072,
			"byteOffset":1055100,
			"target":34963
		},
		{
			"buffer":0,
			"byteLength":9984,
			"byteOffset":1058172,
			"target":34962
		},
		{
			"buffer":0,
			"byteLength":9984,
			"byteOffset":1068156,
			"target":34962
		},
		{
			"buffer":0,
			"byteLength":6656,
			"byteOffset":1078140,
			"target":34962
		},
		{
			"buffer":0,
			"byteLength":4536,
			"byteOffset":1084796,
			"target":34963
		},
		{
			"buffer":0,
			"byteLength":11292,
			"byteOffset":1089332,
			"target":34962
		},
		{
			"buffer":0,
			"byteLength":11292,
			"byteOffset":1100624,
			"target":34962
		},
		{
			"buffer":0,
			"byteLength":7528,
			"byteOffset":1111916,
			"target":34962
		},
		{
			"buffer":0,
			"byteLength":4920,
			"byteOffset":1119444,
			"target":34963
		},
		{
			"buffer":0,
			"byteLength":8448,
			"byteOffset":1124364,
			"target":34962
		},
		{
			"buffer":0,
			"byteLength":8448,
			"byteOffset":1132812,
			"target":34962
		},
		{
			"buffer":0,
			"byteLength":5632,
			"byteOffset":1141260,
			"target":34962
		},
		{
			"buffer":0,
			"byteLength":3888,
			"byteOffset":1146892,
			"target":34963
		},
		{
			"buffer":0,
			"byteLength":9384,
			"byteOffset":1150780,
			"target":34962
		},
		{
			"buffer":0,
			"byteLength":9384,
			"byteOffset":1160164,
			"target":34962
		},
		{
			"buffer":0,
			"byteLength":6256,
			"byteOffset":1169548,
			"target":34962
		},
		{
			"buffer":0,
			"byteLength":4296,
			"byteOffset":1175804,
			"target":34963
		}
	],
	"buffers":[
		{
			"byteLength":1180100,
			"uri":"data:application/octet-stream;base64,"
		}
	]
}
