{
	"asset":{
		"generator":"Khronos glTF Blender I/O v3.6.27",
		"version":"2.0"
	},
	"scene":0,
	"scenes":[
		{
			"name":"Scene",
			"nodes":[
				5
			]
		}
	],
	"nodes":[
		{
			"mesh":0,
			"name":"MSH_Rockola_MTL_Rockola_0",
			"translation":[
				0,
				-5.348834292817628e-06,
				0
			]
		},
		{
			"children":[
				0
			],
			"name":"Object_4",
			"translation":[
				0,
				12.198776245117188,
				-11.892073631286621
			]
		},
		{
			"children":[
				1
			],
			"name":"MSH_Rockola",
			"scale":[
				0.9365710020065308,
				0.936570942401886,
				0.936570942401886
			],
			"translation":[
				0,
				22.798437118530273,
				2.318580389022827
			]
		},
		{
			"children":[
				2
			],
			"name":"RootNode"
		},
		{
			"children":[
				3
			],
			"name":"c7b91122497043268bf8f2cea4ee499b.fbx",
			"rotation":[
				0.70710688829422,
				0,
				0,
				0.7071066498756409
			],
			"scale":[
				0.02539999969303608,
				0.025400003418326378,
				0.025400003418326378
			]
		},
		{
			"children":[
				4
			],
			"name":"Sketchfab_model",
			"rotation":[
				-0.70710688829422,
				0,
				0,
				0.7071066498756409
			]
		}
	],
	"materials":[
		{
			"doubleSided":true,
			"emissiveFactor":[
				1,
				1,
				1
			],
			"emissiveTexture":{
				"index":0
			},
			"name":"MTL_Rockola",
			"normalTexture":{
				"index":1
			},
			"pbrMetallicRoughness":{
				"baseColorTexture":{
					"index":2
				},
				"metallicRoughnessTexture":{
					"index":3
				}
			}
		}
	],
	"meshes":[
		{
			"name":"MSH_Rockola_MTL_Rockola_0",
			"primitives":[
				{
					"attributes":{
						"POSITION":0,
						"NORMAL":1,
						"TEXCOORD_0":2
					},
					"indices":3,
					"material":0
				}
			]
		}
	],
	"textures":[
		{
			"sampler":0,
			"source":0
		},
		{
			"sampler":0,
			"source":1
		},
		{
			"sampler":0,
			"source":2
		},
		{
			"sampler":0,
			"source":3
		}
	],
	"images":[
		{
			"bufferView":4,
			"mimeType":"image/png",
			"name":"Image_2"
		},
		{
			"bufferView":5,
			"mimeType":"image/png",
			"name":"Image_3"
		},
		{
			"bufferView":6,
			"mimeType":"image/png",
			"name":"Image_0"
		},
		{
			"bufferView":7,
			"mimeType":"image/png",
			"name":"Image_1"
		}
	],
	"accessors":[
		{
			"bufferView":0,
			"componentType":5126,
			"count":4074,
			"max":[
				13.656729698181152,
				12.846342086791992,
				24.67058753967285
			],
			"min":[
				-13.656732559204102,
				-36.68191909790039,
				2.1024298667907715
			],
			"type":"VEC3"
		},
		{
			"bufferView":1,
			"componentType":5126,
			"count":4074,
			"type":"VEC3"
		},
		{
			"bufferView":2,
			"componentType":5126,
			"count":4074,
			"type":"VEC2"
		},
		{
			"bufferView":3,
			"componentType":5123,
			"count":16116,
			"type":"SCALAR"
		}
	],
	"bufferViews":[
		{
			"buffer":0,
			"byteLength":48888,
			"byteOffset":0,
			"target":34962
		},
		{
			"buffer":0,
			"byteLength":48888,
			"byteOffset":48888,
			"target":34962
		},
		{
			"buffer":0,
			"byteLength":32592,
			"byteOffset":97776,
			"target":34962
		},
		{
			"buffer":0,
			"byteLength":32232,
			"byteOffset":130368,
			"target":34963
		},
		{
			"buffer":0,
			"byteLength":169436,
			"byteOffset":162600
		},
		{
			"buffer":0,
			"byteLength":228737,
			"byteOffset":332036
		},
		{
			"buffer":0,
			"byteLength":1046433,
			"byteOffset":560776
		},
		{
			"buffer":0,
			"byteLength":193414,
			"byteOffset":1607212
		}
	],
	"samplers":[
		{
			"magFilter":9729,
			"minFilter":9987
		}
	],
	"buffers":[
		{
			"byteLength":1800628,
			"uri":"data:application/octet-stream;base64,"
		}
	]
}
