{
	"asset":{
		"generator":"Khronos glTF Blender I/O v3.6.27",
		"version":"2.0"
	},
	"scene":0,
	"scenes":[
		{
			"name":"Scene",
			"nodes":[
				1
			]
		}
	],
	"nodes":[
		{
			"mesh":0,
			"name":"Armchair_01 - Default_0",
			"translation":[
				-1.52587890625e-05,
				0,
				0
			]
		},
		{
			"children":[
				0
			],
			"name":"Object_4.001",
			"scale":[
				0.001173284836113453,
				0.001173284836113453,
				0.001173284836113453
			],
			"translation":[
				-0.2577820420265198,
				0,
				0
			]
		}
	],
	"materials":[
		{
			"name":"01_-_Default",
			"occlusionTexture":{
				"index":0
			},
			"pbrMetallicRoughness":{
				"baseColorTexture":{
					"index":1
				},
				"metallicFactor":0,
				"metallicRoughnessTexture":{
					"index":0
				}
			}
		}
	],
	"meshes":[
		{
			"name":"Armchair_01 - Default_0",
			"primitives":[
				{
					"attributes":{
						"POSITION":0,
						"NORMAL":1,
						"TEXCOORD_0":2
					},
					"indices":3,
					"material":0
				}
			]
		}
	],
	"textures":[
		{
			"sampler":0,
			"source":0
		},
		{
			"sampler":0,
			"source":1
		}
	],
	"images":[
		{
			"bufferView":4,
			"mimeType":"image/png",
			"name":"Image_1"
		},
		{
			"bufferView":5,
			"mimeType":"image/png",
			"name":"Image_0"
		}
	],
	"accessors":[
		{
			"bufferView":0,
			"componentType":5126,
			"count":8038,
			"max":[
				642.531982421875,
				958.680908203125,
				356.16949462890625
			],
			"min":[
				-162.78781127929688,
				7.43804931640625,
				-449.5279541015625
			],
			"type":"VEC3"
		},
		{
			"bufferView":1,
			"componentType":5126,
			"count":8038,
			"type":"VEC3"
		},
		{
			"bufferView":2,
			"componentType":5126,
			"count":8038,
			"type":"VEC2"
		},
		{
			"bufferView":3,
			"componentType":5123,
			"count":41958,
			"type":"SCALAR"
		}
	],
	"bufferViews":[
		{
			"buffer":0,
			"byteLength":96456,
			"byteOffset":0,
			"target":34962
		},
		{
			"buffer":0,
			"byteLength":96456,
			"byteOffset":96456,
			"target":34962
		},
		{
			"buffer":0,
			"byteLength":64304,
			"byteOffset":192912,
			"target":34962
		},
		{
			"buffer":0,
			"byteLength":83916,
			"byteOffset":257216,
			"target":34963
		},
		{
			"buffer":0,
			"byteLength":256336,
			"byteOffset":341132
		},
		{
			"buffer":0,
			"byteLength":1234186,
			"byteOffset":597468
		}
	],
	"samplers":[
		{
			"magFilter":9729,
			"minFilter":9987
		}
	],
	"buffers":[
		{
			"byteLength":1831656,
			"uri":"data:application/octet-stream;base64,"
		}
	]
}
