{
	"asset":{
		"generator":"Khronos glTF Blender I/O v3.6.27",
		"version":"2.0"
	},
	"scene":0,
	"scenes":[
		{
			"name":"Scene",
			"nodes":[
				10
			]
		}
	],
	"nodes":[
		{
			"mesh":0,
			"name":"Object_6"
		},
		{
			"children":[
				0
			],
			"name":"brush_CelVinyl_g0_b0_3"
		},
		{
			"mesh":1,
			"name":"Object_4"
		},
		{
			"children":[
				2
			],
			"name":"brush_Light_g0_b0_0"
		},
		{
			"mesh":2,
			"name":"Object_10"
		},
		{
			"children":[
				4
			],
			"name":"brush_Marker_g0_b0_5"
		},
		{
			"mesh":3,
			"name":"Object_8"
		},
		{
			"children":[
				6
			],
			"name":"brush_OilPaint_g0_b0_4"
		},
		{
			"children":[
				1,
				3,
				5,
				7
			],
			"name":"GLTF_SceneRootNode",
			"rotation":[
				0.70710688829422,
				0,
				0,
				0.7071066498756409
			]
		},
		{
			"children":[
				8
			],
			"name":"root"
		},
		{
			"children":[
				9
			],
			"name":"Sketchfab_model",
			"rotation":[
				-0.70710688829422,
				0,
				0,
				0.7071066498756409
			],
			"translation":[
				0.2970764636993408,
				0,
				0
			]
		}
	],
	"materials":[
		{
			"alphaCutoff":0.5540000200271606,
			"alphaMode":"MASK",
			"doubleSided":true,
			"name":"brush_CelVinyl",
			"pbrMetallicRoughness":{
				"baseColorTexture":{
					"index":0
				},
				"metallicFactor":0
			}
		},
		{
			"alphaMode":"BLEND",
			"doubleSided":true,
			"name":"brush_Light",
			"pbrMetallicRoughness":{
				"baseColorTexture":{
					"index":1
				},
				"metallicFactor":0
			}
		},
		{
			"alphaCutoff":0.06700000166893005,
			"alphaMode":"MASK",
			"doubleSided":true,
			"name":"brush_Marker",
			"pbrMetallicRoughness":{
				"baseColorTexture":{
					"index":2
				},
				"metallicFactor":0
			}
		},
		{
			"alphaCutoff":0.5,
			"alphaMode":"MASK",
			"doubleSided":true,
			"name":"brush_OilPaint",
			"normalTexture":{
				"index":3,
				"texCoord":1
			},
			"pbrMetallicRoughness":{
				"baseColorTexture":{
					"index":4
				},
				"metallicFactor":0,
				"roughnessFactor":0.6000000238418579
			}
		}
	],
	"meshes":[
		{
			"name":"Object_1.002",
			"primitives":[
				{
					"attributes":{
						"COLOR_0":0,
						"POSITION":1,
						"NORMAL":2,
						"TEXCOORD_0":3
					},
					"indices":4,
					"material":0
				}
			]
		},
		{
			"name":"Object_0.003",
			"primitives":[
				{
					"attributes":{
						"COLOR_0":5,
						"POSITION":6,
						"NORMAL":7,
						"TEXCOORD_0":8
					},
					"indices":9,
					"material":1
				}
			]
		},
		{
			"name":"Object_3.002",
			"primitives":[
				{
					"attributes":{
						"COLOR_0":10,
						"POSITION":11,
						"NORMAL":12,
						"TEXCOORD_0":13
					},
					"indices":14,
					"material":2
				}
			]
		},
		{
			"name":"Object_2.002",
			"primitives":[
				{
					"attributes":{
						"COLOR_0":15,
						"POSITION":16,
						"NORMAL":17,
						"TEXCOORD_0":18,
						"TEXCOORD_1":19
					},
					"indices":20,
					"material":3
				}
			]
		}
	],
	"textures":[
		{
			"sampler":0,
			"source":0
		},
		{
			"sampler":0,
			"source":1
		},
		{
			"sampler":0,
			"source":2
		},
		{
			"sampler":0,
			"source":3
		},
		{
			"sampler":0,
			"source":4
		}
	],
	"images":[
		{
			"mimeType":"image/png",
			"name":"Image_1",
			"uri":"Image_1.png"
		},
		{
			"mimeType":"image/png",
			"name":"Image_0",
			"uri":"Image_0.png"
		},
		{
			"mimeType":"image/png",
			"name":"Image_4",
			"uri":"Image_4.png"
		},
		{
			"mimeType":"image/png",
			"name":"Image_3",
			"uri":"Image_3.png"
		},
		{
			"mimeType":"image/png",
			"name":"Image_2",
			"uri":"Image_2.png"
		}
	],
	"accessors":[
		{
			"bufferView":0,
			"componentType":5123,
			"count":2098,
			"normalized":true,
			"type":"VEC4"
		},
		{
			"bufferView":1,
			"componentType":5126,
			"count":2098,
			"max":[
				-0.0776720941066742,
				0.7552499771118164,
				0.18028397858142853
			],
			"min":[
				-0.47987237572669983,
				0.38023653626441956,
				-0.2277183085680008
			],
			"type":"VEC3"
		},
		{
			"bufferView":2,
			"componentType":5126,
			"count":2098,
			"type":"VEC3"
		},
		{
			"bufferView":3,
			"componentType":5126,
			"count":2098,
			"type":"VEC2"
		},
		{
			"bufferView":4,
			"componentType":5123,
			"count":6066,
			"type":"SCALAR"
		},
		{
			"bufferView":5,
			"componentType":5123,
			"count":2266,
			"normalized":true,
			"type":"VEC4"
		},
		{
			"bufferView":6,
			"componentType":5126,
			"count":2266,
			"max":[
				-0.00748506560921669,
				1.0577335357666016,
				0.13006316125392914
			],
			"min":[
				-0.5825884342193604,
				0.5594969391822815,
				-0.05617576837539673
			],
			"type":"VEC3"
		},
		{
			"bufferView":7,
			"componentType":5126,
			"count":2266,
			"type":"VEC3"
		},
		{
			"bufferView":8,
			"componentType":5126,
			"count":2266,
			"type":"VEC2"
		},
		{
			"bufferView":9,
			"componentType":5123,
			"count":6546,
			"type":"SCALAR"
		},
		{
			"bufferView":10,
			"componentType":5123,
			"count":5486,
			"normalized":true,
			"type":"VEC4"
		},
		{
			"bufferView":11,
			"componentType":5126,
			"count":5486,
			"max":[
				-0.008178082294762135,
				1.0884026288986206,
				0.46972379088401794
			],
			"min":[
				-0.6604546904563904,
				0.36346402764320374,
				-0.24235938489437103
			],
			"type":"VEC3"
		},
		{
			"bufferView":12,
			"componentType":5126,
			"count":5486,
			"type":"VEC3"
		},
		{
			"bufferView":13,
			"componentType":5126,
			"count":5486,
			"type":"VEC2"
		},
		{
			"bufferView":14,
			"componentType":5123,
			"count":15114,
			"type":"SCALAR"
		},
		{
			"bufferView":15,
			"componentType":5123,
			"count":3766,
			"normalized":true,
			"type":"VEC4"
		},
		{
			"bufferView":16,
			"componentType":5126,
			"count":3766,
			"max":[
				0.02241802215576172,
				1.0768789052963257,
				0.12031165510416031
			],
			"min":[
				-0.583432137966156,
				0.5708996057510376,
				-0.061185386031866074
			],
			"type":"VEC3"
		},
		{
			"bufferView":17,
			"componentType":5126,
			"count":3766,
			"type":"VEC3"
		},
		{
			"bufferView":18,
			"componentType":5126,
			"count":3766,
			"type":"VEC2"
		},
		{
			"bufferView":19,
			"componentType":5126,
			"count":3766,
			"type":"VEC2"
		},
		{
			"bufferView":20,
			"componentType":5123,
			"count":10452,
			"type":"SCALAR"
		}
	],
	"bufferViews":[
		{
			"buffer":0,
			"byteLength":16784,
			"byteOffset":0,
			"target":34962
		},
		{
			"buffer":0,
			"byteLength":25176,
			"byteOffset":16784,
			"target":34962
		},
		{
			"buffer":0,
			"byteLength":25176,
			"byteOffset":41960,
			"target":34962
		},
		{
			"buffer":0,
			"byteLength":16784,
			"byteOffset":67136,
			"target":34962
		},
		{
			"buffer":0,
			"byteLength":12132,
			"byteOffset":83920,
			"target":34963
		},
		{
			"buffer":0,
			"byteLength":18128,
			"byteOffset":96052,
			"target":34962
		},
		{
			"buffer":0,
			"byteLength":27192,
			"byteOffset":114180,
			"target":34962
		},
		{
			"buffer":0,
			"byteLength":27192,
			"byteOffset":141372,
			"target":34962
		},
		{
			"buffer":0,
			"byteLength":18128,
			"byteOffset":168564,
			"target":34962
		},
		{
			"buffer":0,
			"byteLength":13092,
			"byteOffset":186692,
			"target":34963
		},
		{
			"buffer":0,
			"byteLength":43888,
			"byteOffset":199784,
			"target":34962
		},
		{
			"buffer":0,
			"byteLength":65832,
			"byteOffset":243672,
			"target":34962
		},
		{
			"buffer":0,
			"byteLength":65832,
			"byteOffset":309504,
			"target":34962
		},
		{
			"buffer":0,
			"byteLength":43888,
			"byteOffset":375336,
			"target":34962
		},
		{
			"buffer":0,
			"byteLength":30228,
			"byteOffset":419224,
			"target":34963
		},
		{
			"buffer":0,
			"byteLength":30128,
			"byteOffset":449452,
			"target":34962
		},
		{
			"buffer":0,
			"byteLength":45192,
			"byteOffset":479580,
			"target":34962
		},
		{
			"buffer":0,
			"byteLength":45192,
			"byteOffset":524772,
			"target":34962
		},
		{
			"buffer":0,
			"byteLength":30128,
			"byteOffset":569964,
			"target":34962
		},
		{
			"buffer":0,
			"byteLength":30128,
			"byteOffset":600092,
			"target":34962
		},
		{
			"buffer":0,
			"byteLength":20904,
			"byteOffset":630220,
			"target":34963
		}
	],
	"samplers":[
		{
			"magFilter":9729,
			"minFilter":9987
		}
	],
	"buffers":[
		{
			"byteLength":651124,
			"uri":"scene.bin"
		}
	]
}
