{
  "accessors": [
    {
      "bufferView": 2,
      "componentType": 5126,
      "count": 65534,
      "max": [
        10.800246238708496,
        10.796363830566406,
        6.3660759925842285
      ],
      "min": [
        -11.05012321472168,
        -4.8161139488220215,
        0.4177750051021576
      ],
      "type": "VEC3"
    },
    {
      "bufferView": 2,
      "byteOffset": 786408,
      "componentType": 5126,
      "count": 65534,
      "max": [
        0.9999992847442627,
        0.9999979734420776,
        0.9999997615814209
      ],
      "min": [
        -1.0,
        -0.9999978542327881,
        -0.9999997615814209
      ],
      "type": "VEC3"
    },
    {
      "bufferView": 1,
      "componentType": 5126,
      "count": 65534,
      "max": [
        0.9584919810295105,
        0.9626460075378418
      ],
      "min": [
        0.040282998234033585,
        0.00032500000088475645
      ],
      "type": "VEC2"
    },
    {
      "bufferView": 0,
      "componentType": 5125,
      "count": 66378,
      "type": "SCALAR"
    },
    {
      "bufferView": 2,
      "byteOffset": 1572816,
      "componentType": 5126,
      "count": 65532,
      "max": [
        10.799745559692383,
        10.799882888793945,
        2.145479917526245
      ],
      "min": [
        -11.049230575561523,
        -4.7989091873168945,
        1.1039899587631226
      ],
      "type": "VEC3"
    },
    {
      "bufferView": 2,
      "byteOffset": 2359200,
      "componentType": 5126,
      "count": 65532,
      "max": [
        0.9999710321426392,
        0.9999823570251465,
        1.0
      ],
      "min": [
        -1.0,
        -0.9999425411224365,
        -0.794495165348053
      ],
      "type": "VEC3"
    },
    {
      "bufferView": 1,
      "byteOffset": 524272,
      "componentType": 5126,
      "count": 65532,
      "max": [
        0.9989349842071533,
        0.9333490133285522
      ],
      "min": [
        0.00024399999529123306,
        0.0003020000003743917
      ],
      "type": "VEC2"
    },
    {
      "bufferView": 0,
      "byteOffset": 265512,
      "componentType": 5125,
      "count": 65601,
      "type": "SCALAR"
    },
    {
      "bufferView": 2,
      "byteOffset": 3145584,
      "componentType": 5126,
      "count": 65533,
      "max": [
        10.71536922454834,
        10.799882888793945,
        2.7139220237731934
      ],
      "min": [
        -11.048941612243652,
        -1.3714020252227783,
        1.6233760118484497
      ],
      "type": "VEC3"
    },
    {
      "bufferView": 2,
      "byteOffset": 3931980,
      "componentType": 5126,
      "count": 65533,
      "max": [
        1.0,
        0.9999978542327881,
        1.0
      ],
      "min": [
        -0.9999951124191284,
        -0.9996843934059143,
        -0.9997077584266663
      ],
      "type": "VEC3"
    },
    {
      "bufferView": 1,
      "byteOffset": 1048528,
      "componentType": 5126,
      "count": 65533,
      "max": [
        0.9990130066871643,
        0.9315750002861023
      ],
      "min": [
        0.0008149999775923789,
        0.0002680000034160912
      ],
      "type": "VEC2"
    },
    {
      "bufferView": 0,
      "byteOffset": 527916,
      "componentType": 5125,
      "count": 65583,
      "type": "SCALAR"
    },
    {
      "bufferView": 2,
      "byteOffset": 4718376,
      "componentType": 5126,
      "count": 65534,
      "max": [
        7.199256896972656,
        5.236927032470703,
        8.918991088867188
      ],
      "min": [
        -7.116464138031006,
        -1.3674169778823853,
        2.403139114379883
      ],
      "type": "VEC3"
    },
    {
      "bufferView": 2,
      "byteOffset": 5504784,
      "componentType": 5126,
      "count": 65534,
      "max": [
        0.9999847412109375,
        0.9998409152030945,
        0.9996494650840759
      ],
      "min": [
        -0.9999767541885376,
        -0.999983549118042,
        -0.9955966472625732
      ],
      "type": "VEC3"
    },
    {
      "bufferView": 1,
      "byteOffset": 1572792,
      "componentType": 5126,
      "count": 65534,
      "max": [
        0.9995610117912292,
        0.9417660236358643
      ],
      "min": [
        0.00024399999529123306,
        0.0002899999963119626
      ],
      "type": "VEC2"
    },
    {
      "bufferView": 0,
      "byteOffset": 790248,
      "componentType": 5125,
      "count": 65586,
      "type": "SCALAR"
    },
    {
      "bufferView": 2,
      "byteOffset": 6291192,
      "componentType": 5126,
      "count": 65534,
      "max": [
        8.23201847076416,
        5.422801971435547,
        10.216732025146484
      ],
      "min": [
        -7.07988977432251,
        -0.4855769872665405,
        8.559771537780762
      ],
      "type": "VEC3"
    },
    {
      "bufferView": 2,
      "byteOffset": 7077600,
      "componentType": 5126,
      "count": 65534,
      "max": [
        0.9999842643737793,
        0.9999815225601196,
        0.9991695880889893
      ],
      "min": [
        -0.9999409914016724,
        -0.9999971389770508,
        -0.9973850250244141
      ],
      "type": "VEC3"
    },
    {
      "bufferView": 1,
      "byteOffset": 2097064,
      "componentType": 5126,
      "count": 65534,
      "max": [
        0.9997169971466064,
        0.9421390295028687
      ],
      "min": [
        0.006250999867916107,
        0.0002690000110305846
      ],
      "type": "VEC2"
    },
    {
      "bufferView": 0,
      "byteOffset": 1052592,
      "componentType": 5125,
      "count": 65550,
      "type": "SCALAR"
    },
    {
      "bufferView": 2,
      "byteOffset": 7864008,
      "componentType": 5126,
      "count": 65533,
      "max": [
        8.168067932128906,
        5.137321949005127,
        13.843682289123535
      ],
      "min": [
        -6.953589916229248,
        -0.2786079943180084,
        9.844985961914063
      ],
      "type": "VEC3"
    },
    {
      "bufferView": 2,
      "byteOffset": 8650404,
      "componentType": 5126,
      "count": 65533,
      "max": [
        0.9999920129776001,
        0.9999799728393555,
        0.9997401833534241
      ],
      "min": [
        -0.9999088048934937,
        -0.9999997615814209,
        -0.9853609204292297
      ],
      "type": "VEC3"
    },
    {
      "bufferView": 1,
      "byteOffset": 2621336,
      "componentType": 5126,
      "count": 65533,
      "max": [
        0.9990360140800476,
        0.9217489957809448
      ],
      "min": [
        0.004149999935179949,
        0.0002629999944474548
      ],
      "type": "VEC2"
    },
    {
      "bufferView": 0,
      "byteOffset": 1314792,
      "componentType": 5125,
      "count": 65547,
      "type": "SCALAR"
    },
    {
      "bufferView": 2,
      "byteOffset": 9436800,
      "componentType": 5126,
      "count": 65533,
      "max": [
        7.94394588470459,
        5.1994099617004395,
        11.768303871154785
      ],
      "min": [
        -7.654448986053467,
        -0.5931730270385742,
        7.797935962677002
      ],
      "type": "VEC3"
    },
    {
      "bufferView": 2,
      "byteOffset": 10223196,
      "componentType": 5126,
      "count": 65533,
      "max": [
        0.9999545812606812,
        0.9999806880950928,
        0.9632245302200317
      ],
      "min": [
        -0.9999288320541382,
        -0.9999828338623047,
        -0.9702794551849365
      ],
      "type": "VEC3"
    },
    {
      "bufferView": 1,
      "byteOffset": 3145600,
      "componentType": 5126,
      "count": 65533,
      "max": [
        0.9963690042495728,
        0.9440919756889343
      ],
      "min": [
        0.00024399999529123306,
        0.00024399999529123306
      ],
      "type": "VEC2"
    },
    {
      "bufferView": 0,
      "byteOffset": 1576980,
      "componentType": 5125,
      "count": 65541,
      "type": "SCALAR"
    },
    {
      "bufferView": 2,
      "byteOffset": 11009592,
      "componentType": 5126,
      "count": 65534,
      "max": [
        7.333501815795898,
        5.225098133087158,
        8.18795394897461
      ],
      "min": [
        -8.16757869720459,
        -0.9415609836578369,
        6.44766092300415
      ],
      "type": "VEC3"
    },
    {
      "bufferView": 2,
      "byteOffset": 11796000,
      "componentType": 5126,
      "count": 65534,
      "max": [
        0.9999479055404663,
        0.9999923706054688,
        0.9597392082214355
      ],
      "min": [
        -0.9999973773956299,
        -0.9999397993087769,
        -0.9999473094940186
      ],
      "type": "VEC3"
    },
    {
      "bufferView": 1,
      "byteOffset": 3669864,
      "componentType": 5126,
      "count": 65534,
      "max": [
        0.9989680051803589,
        0.8957470059394836
      ],
      "min": [
        0.00024399999529123306,
        0.0002730000123847276
      ],
      "type": "VEC2"
    },
    {
      "bufferView": 0,
      "byteOffset": 1839144,
      "componentType": 5125,
      "count": 65556,
      "type": "SCALAR"
    },
    {
      "bufferView": 2,
      "byteOffset": 12582408,
      "componentType": 5126,
      "count": 65534,
      "max": [
        7.131914138793945,
        4.850519180297852,
        6.812442779541016
      ],
      "min": [
        -8.184881210327148,
        -1.0324729681015015,
        5.145249843597412
      ],
      "type": "VEC3"
    },
    {
      "bufferView": 2,
      "byteOffset": 13368816,
      "componentType": 5126,
      "count": 65534,
      "max": [
        0.9999676942825317,
        0.9999175071716309,
        0.9999732971191406
      ],
      "min": [
        -0.9999465942382813,
        -0.9999964237213135,
        -0.9998711347579956
      ],
      "type": "VEC3"
    },
    {
      "bufferView": 1,
      "byteOffset": 4194136,
      "componentType": 5126,
      "count": 65534,
      "max": [
        0.9966059923171997,
        0.9050289988517761
      ],
      "min": [
        0.023429999127984047,
        0.00030399998649954796
      ],
      "type": "VEC2"
    },
    {
      "bufferView": 0,
      "byteOffset": 2101368,
      "componentType": 5125,
      "count": 65655,
      "type": "SCALAR"
    },
    {
      "bufferView": 2,
      "byteOffset": 14155224,
      "componentType": 5126,
      "count": 39123,
      "max": [
        6.801206111907959,
        4.673724174499512,
        5.652472972869873
      ],
      "min": [
        -7.362298965454102,
        -0.9567739963531494,
        4.122207164764404
      ],
      "type": "VEC3"
    },
    {
      "bufferView": 2,
      "byteOffset": 14624700,
      "componentType": 5126,
      "count": 39123,
      "max": [
        0.9999980926513672,
        0.9998735189437866,
        0.9211187958717346
      ],
      "min": [
        -0.9999359846115112,
        -0.9999173879623413,
        -0.9779995083808899
      ],
      "type": "VEC3"
    },
    {
      "bufferView": 1,
      "byteOffset": 4718408,
      "componentType": 5126,
      "count": 39123,
      "max": [
        0.9911090135574341,
        0.9270679950714111
      ],
      "min": [
        0.00024399999529123306,
        0.00026000000070780516
      ],
      "type": "VEC2"
    },
    {
      "bufferView": 0,
      "byteOffset": 2363988,
      "componentType": 5125,
      "count": 39147,
      "type": "SCALAR"
    }
  ],
  "asset": {
    "extras": {
      "author": "David Vacas Madrid (https://sketchfab.com/vacasmadrid)",
      "license": "CC-BY-4.0 (http://creativecommons.org/licenses/by/4.0/)",
      "source": "https://sketchfab.com/3d-models/the-beatles-statue-bdc43f7883454cd7a2f9a40c080c81eb",
      "title": "The Beatles Statue"
    },
    "generator": "Sketchfab-12.65.0",
    "version": "2.0"
  },
  "bufferViews": [
    {
      "buffer": 0,
      "byteLength": 2520576,
      "name": "floatBufferViews",
      "target": 34963
    },
    {
      "buffer": 0,
      "byteLength": 5031392,
      "byteOffset": 2520576,
      "byteStride": 8,
      "name": "floatBufferViews",
      "target": 34962
    },
    {
      "buffer": 0,
      "byteLength": 15094176,
      "byteOffset": 7551968,
      "byteStride": 12,
      "name": "floatBufferViews",
      "target": 34962
    }
  ],
  "buffers": [
    {
      "byteLength": 22646144,
      "uri": "scene.bin"
    }
  ],
  "extensionsUsed": [
    "KHR_materials_unlit"
  ],
  "images": [
    {
      "uri": "textures/Beatles_web_u1_v1_baseColor.jpeg"
    }
  ],
  "materials": [
    {
      "doubleSided": true,
      "extensions": {
        "KHR_materials_unlit": {}
      },
      "name": "Beatles_web_u1_v1",
      "pbrMetallicRoughness": {
        "baseColorTexture": {
          "index": 0
        },
        "metallicFactor": 0.0
      }
    }
  ],
  "meshes": [
    {
      "name": "Object_0",
      "primitives": [
        {
          "attributes": {
            "NORMAL": 1,
            "POSITION": 0,
            "TEXCOORD_0": 2
          },
          "indices": 3,
          "material": 0,
          "mode": 4
        }
      ]
    },
    {
      "name": "Object_1",
      "primitives": [
        {
          "attributes": {
            "NORMAL": 5,
            "POSITION": 4,
            "TEXCOORD_0": 6
          },
          "indices": 7,
          "material": 0,
          "mode": 4
        }
      ]
    },
    {
      "name": "Object_2",
      "primitives": [
        {
          "attributes": {
            "NORMAL": 9,
            "POSITION": 8,
            "TEXCOORD_0": 10
          },
          "indices": 11,
          "material": 0,
          "mode": 4
        }
      ]
    },
    {
      "name": "Object_3",
      "primitives": [
        {
          "attributes": {
            "NORMAL": 13,
            "POSITION": 12,
            "TEXCOORD_0": 14
          },
          "indices": 15,
          "material": 0,
          "mode": 4
        }
      ]
    },
    {
      "name": "Object_4",
      "primitives": [
        {
          "attributes": {
            "NORMAL": 17,
            "POSITION": 16,
            "TEXCOORD_0": 18
          },
          "indices": 19,
          "material": 0,
          "mode": 4
        }
      ]
    },
    {
      "name": "Object_5",
      "primitives": [
        {
          "attributes": {
            "NORMAL": 21,
            "POSITION": 20,
            "TEXCOORD_0": 22
          },
          "indices": 23,
          "material": 0,
          "mode": 4
        }
      ]
    },
    {
      "name": "Object_6",
      "primitives": [
        {
          "attributes": {
            "NORMAL": 25,
            "POSITION": 24,
            "TEXCOORD_0": 26
          },
          "indices": 27,
          "material": 0,
          "mode": 4
        }
      ]
    },
    {
      "name": "Object_7",
      "primitives": [
        {
          "attributes": {
            "NORMAL": 29,
            "POSITION": 28,
            "TEXCOORD_0": 30
          },
          "indices": 31,
          "material": 0,
          "mode": 4
        }
      ]
    },
    {
      "name": "Object_8",
      "primitives": [
        {
          "attributes": {
            "NORMAL": 33,
            "POSITION": 32,
            "TEXCOORD_0": 34
          },
          "indices": 35,
          "material": 0,
          "mode": 4
        }
      ]
    },
    {
      "name": "Object_9",
      "primitives": [
        {
          "attributes": {
            "NORMAL": 37,
            "POSITION": 36,
            "TEXCOORD_0": 38
          },
          "indices": 39,
          "material": 0,
          "mode": 4
        }
      ]
    }
  ],
  "nodes": [
    {
      "children": [
        1
      ],
      "matrix": [
        1.0,
        0.0,
        0.0,
        0.0,
        0.0,
        2.220446049250313e-16,
        -1.0,
        0.0,
        0.0,
        1.0,
        2.220446049250313e-16,
        0.0,
        0.0,
        0.0,
        0.0,
        1.0
      ],
      "name": "Sketchfab_model"
    },
    {
      "children": [
        2,
        3,
        4,
        5,
        6,
        7,
        8,
        9,
        10,
        11
      ],
      "name": "Beatles_web2.obj.cleaner.materialmerger.gles"
    },
    {
      "mesh": 0,
      "name": "Object_2"
    },
    {
      "mesh": 1,
      "name": "Object_3"
    },
    {
      "mesh": 2,
      "name": "Object_4"
    },
    {
      "mesh": 3,
      "name": "Object_5"
    },
    {
      "mesh": 4,
      "name": "Object_6"
    },
    {
      "mesh": 5,
      "name": "Object_7"
    },
    {
      "mesh": 6,
      "name": "Object_8"
    },
    {
      "mesh": 7,
      "name": "Object_9"
    },
    {
      "mesh": 8,
      "name": "Object_10"
    },
    {
      "mesh": 9,
      "name": "Object_11"
    }
  ],
  "samplers": [
    {
      "magFilter": 9729,
      "minFilter": 9987,
      "wrapS": 10497,
      "wrapT": 10497
    }
  ],
  "scene": 0,
  "scenes": [
    {
      "name": "Sketchfab_Scene",
      "nodes": [
        0
      ]
    }
  ],
  "textures": [
    {
      "sampler": 0,
      "source": 0
    }
  ]
}
