{
	"asset":{
		"generator":"Khronos glTF Blender I/O v3.6.27",
		"version":"2.0"
	},
	"scene":0,
	"scenes":[
		{
			"name":"Scene",
			"nodes":[
				10
			]
		}
	],
	"nodes":[
		{
			"mesh":0,
			"name":"Material2"
		},
		{
			"mesh":1,
			"name":"Material2.001"
		},
		{
			"mesh":2,
			"name":"Material2.002"
		},
		{
			"mesh":3,
			"name":"Material2.003"
		},
		{
			"mesh":4,
			"name":"Material2.004"
		},
		{
			"mesh":5,
			"name":"Material2.005"
		},
		{
			"name":"ID1",
			"translation":[
				-2.837403371813707e-06,
				0,
				2.86102294921875e-06
			]
		},
		{
			"children":[
				6
			],
			"name":"skp_camera_Last_Saved_SketchUp_View",
			"rotation":[
				0.6272143721580505,
				-0.1340203881263733,
				-0.16031913459300995,
				0.7502923011779785
			],
			"translation":[
				-3.5944595336914062,
				-24.59787940979004,
				11.505391120910645
			]
		},
		{
			"children":[
				7
			],
			"name":"SketchUp"
		},
		{
			"children":[
				0,
				1,
				2,
				3,
				4,
				5,
				8
			],
			"name":"Collada visual scene group"
		},
		{
			"children":[
				9
			],
			"name":"Sketchfab_model",
			"rotation":[
				-0.7071069478988647,
				0,
				0,
				0.7071066498756409
			],
			"scale":[
				0.09678467363119125,
				0.09678468853235245,
				0.09678468853235245
			],
			"translation":[
				-0.9004167318344116,
				0,
				0
			]
		}
	],
	"materials":[
		{
			"doubleSided":true,
			"name":"Color_M07",
			"pbrMetallicRoughness":{
				"baseColorFactor":[
					0.027606939896941185,
					0.02392849326133728,
					0.022313106805086136,
					1
				],
				"metallicFactor":0,
				"roughnessFactor":0.5
			}
		},
		{
			"doubleSided":true,
			"name":"Color_M06",
			"pbrMetallicRoughness":{
				"baseColorFactor":[
					0.0517662912607193,
					0.0517662912607193,
					0.0517662912607193,
					1
				],
				"metallicFactor":0,
				"roughnessFactor":0.5
			}
		},
		{
			"doubleSided":true,
			"name":"Color_C05",
			"pbrMetallicRoughness":{
				"baseColorFactor":[
					1,
					0.2438378632068634,
					0,
					1
				],
				"metallicFactor":0,
				"roughnessFactor":0.5
			}
		},
		{
			"doubleSided":true,
			"name":"Color_M08",
			"pbrMetallicRoughness":{
				"baseColorFactor":[
					0,
					0,
					0,
					1
				],
				"metallicFactor":0,
				"roughnessFactor":0.8999999761581421
			}
		},
		{
			"doubleSided":true,
			"name":"Color_M01",
			"pbrMetallicRoughness":{
				"baseColorFactor":[
					0.8862749934196472,
					0.8862749934196472,
					0.8862749934196472,
					1
				],
				"roughnessFactor":0.10000000149011612
			}
		},
		{
			"doubleSided":true,
			"name":"Color_M00",
			"pbrMetallicRoughness":{
				"metallicFactor":0,
				"roughnessFactor":0.5
			}
		}
	],
	"meshes":[
		{
			"name":"Material2",
			"primitives":[
				{
					"attributes":{
						"POSITION":0,
						"NORMAL":1
					},
					"indices":2,
					"material":0
				}
			]
		},
		{
			"name":"Material2.001",
			"primitives":[
				{
					"attributes":{
						"POSITION":3,
						"NORMAL":4
					},
					"indices":5,
					"material":1
				}
			]
		},
		{
			"name":"Material2.002",
			"primitives":[
				{
					"attributes":{
						"POSITION":6,
						"NORMAL":7
					},
					"indices":8,
					"material":2
				}
			]
		},
		{
			"name":"Material2.003",
			"primitives":[
				{
					"attributes":{
						"POSITION":9,
						"NORMAL":10
					},
					"indices":11,
					"material":3
				}
			]
		},
		{
			"name":"Material2.004",
			"primitives":[
				{
					"attributes":{
						"POSITION":12,
						"NORMAL":13
					},
					"indices":14,
					"material":4
				}
			]
		},
		{
			"name":"Material2.005",
			"primitives":[
				{
					"attributes":{
						"POSITION":15,
						"NORMAL":16
					},
					"indices":17,
					"material":5
				}
			]
		}
	],
	"accessors":[
		{
			"bufferView":0,
			"componentType":5126,
			"count":4225,
			"max":[
				18.543310165405273,
				2.3228349685668945,
				12.519689559936523
			],
			"min":[
				0.03937007859349251,
				0.07874015718698502,
				0
			],
			"type":"VEC3"
		},
		{
			"bufferView":1,
			"componentType":5126,
			"count":4225,
			"type":"VEC3"
		},
		{
			"bufferView":2,
			"componentType":5123,
			"count":11427,
			"type":"SCALAR"
		},
		{
			"bufferView":3,
			"componentType":5126,
			"count":7384,
			"max":[
				18.582679748535156,
				4.724409103393555,
				10.275589942932129
			],
			"min":[
				0,
				0,
				0
			],
			"type":"VEC3"
		},
		{
			"bufferView":4,
			"componentType":5126,
			"count":7384,
			"type":"VEC3"
		},
		{
			"bufferView":5,
			"componentType":5123,
			"count":19296,
			"type":"SCALAR"
		},
		{
			"bufferView":6,
			"componentType":5126,
			"count":1119,
			"max":[
				16.181499481201172,
				0.4724408984184265,
				9.803150177001953
			],
			"min":[
				4.8429131507873535,
				0.2517716884613037,
				3.1539371013641357
			],
			"type":"VEC3"
		},
		{
			"bufferView":7,
			"componentType":5126,
			"count":1119,
			"type":"VEC3"
		},
		{
			"bufferView":8,
			"componentType":5123,
			"count":3075,
			"type":"SCALAR"
		},
		{
			"bufferView":9,
			"componentType":5126,
			"count":1409,
			"max":[
				18.212600708007812,
				4.448819160461426,
				9.763779640197754
			],
			"min":[
				0.3700787127017975,
				0.4685038924217224,
				0.39370080828666687
			],
			"type":"VEC3"
		},
		{
			"bufferView":10,
			"componentType":5126,
			"count":1409,
			"type":"VEC3"
		},
		{
			"bufferView":11,
			"componentType":5123,
			"count":3669,
			"type":"SCALAR"
		},
		{
			"bufferView":12,
			"componentType":5126,
			"count":1120,
			"max":[
				18.07086944580078,
				1.062991976737976,
				6.653542995452881
			],
			"min":[
				0.5118110179901123,
				0.07874015718698502,
				0.5511810779571533
			],
			"type":"VEC3"
		},
		{
			"bufferView":13,
			"componentType":5126,
			"count":1120,
			"type":"VEC3"
		},
		{
			"bufferView":14,
			"componentType":5123,
			"count":4146,
			"type":"SCALAR"
		},
		{
			"bufferView":15,
			"componentType":5126,
			"count":145,
			"max":[
				16.181499481201172,
				0.38976380228996277,
				9.696394920349121
			],
			"min":[
				4.331101894378662,
				0.27165350317955017,
				7.440945148468018
			],
			"type":"VEC3"
		},
		{
			"bufferView":16,
			"componentType":5126,
			"count":145,
			"type":"VEC3"
		},
		{
			"bufferView":17,
			"componentType":5123,
			"count":369,
			"type":"SCALAR"
		}
	],
	"bufferViews":[
		{
			"buffer":0,
			"byteLength":50700,
			"byteOffset":0,
			"target":34962
		},
		{
			"buffer":0,
			"byteLength":50700,
			"byteOffset":50700,
			"target":34962
		},
		{
			"buffer":0,
			"byteLength":22854,
			"byteOffset":101400,
			"target":34963
		},
		{
			"buffer":0,
			"byteLength":88608,
			"byteOffset":124256,
			"target":34962
		},
		{
			"buffer":0,
			"byteLength":88608,
			"byteOffset":212864,
			"target":34962
		},
		{
			"buffer":0,
			"byteLength":38592,
			"byteOffset":301472,
			"target":34963
		},
		{
			"buffer":0,
			"byteLength":13428,
			"byteOffset":340064,
			"target":34962
		},
		{
			"buffer":0,
			"byteLength":13428,
			"byteOffset":353492,
			"target":34962
		},
		{
			"buffer":0,
			"byteLength":6150,
			"byteOffset":366920,
			"target":34963
		},
		{
			"buffer":0,
			"byteLength":16908,
			"byteOffset":373072,
			"target":34962
		},
		{
			"buffer":0,
			"byteLength":16908,
			"byteOffset":389980,
			"target":34962
		},
		{
			"buffer":0,
			"byteLength":7338,
			"byteOffset":406888,
			"target":34963
		},
		{
			"buffer":0,
			"byteLength":13440,
			"byteOffset":414228,
			"target":34962
		},
		{
			"buffer":0,
			"byteLength":13440,
			"byteOffset":427668,
			"target":34962
		},
		{
			"buffer":0,
			"byteLength":8292,
			"byteOffset":441108,
			"target":34963
		},
		{
			"buffer":0,
			"byteLength":1740,
			"byteOffset":449400,
			"target":34962
		},
		{
			"buffer":0,
			"byteLength":1740,
			"byteOffset":451140,
			"target":34962
		},
		{
			"buffer":0,
			"byteLength":738,
			"byteOffset":452880,
			"target":34963
		}
	],
	"buffers":[
		{
			"byteLength":453620,
			"uri":"data:application/octet-stream;base64,"
		}
	]
}
