{
	"asset":{
		"generator":"Khronos glTF Blender I/O v3.6.27",
		"version":"2.0"
	},
	"scene":0,
	"scenes":[
		{
			"name":"Scene",
			"nodes":[
				6
			]
		}
	],
	"nodes":[
		{
			"mesh":0,
			"name":"Pared_de_Piedrita1_pasted__pasted__pasted__blinn4_0",
			"translation":[
				519.059814453125,
				0,
				449.3216552734375
			]
		},
		{
			"children":[
				0
			],
			"name":"Pared_de_Piedrita1"
		},
		{
			"name":"Piso1"
		},
		{
			"children":[
				1,
				2
			],
			"name":"No_destruibles"
		},
		{
			"children":[
				3
			],
			"name":"RootNode"
		},
		{
			"children":[
				4
			],
			"name":"97c82e66800e4d8aa9ed209fe963c001.fbx",
			"rotation":[
				0.70710688829422,
				0,
				0,
				0.7071066498756409
			],
			"scale":[
				0.009999999776482582,
				0.010000000707805157,
				0.010000000707805157
			]
		},
		{
			"children":[
				5
			],
			"name":"Sketchfab_model",
			"rotation":[
				-0.70710688829422,
				0,
				0,
				0.7071066498756409
			]
		}
	],
	"materials":[
		{
			"doubleSided":true,
			"name":"pasted__pasted__pasted__blinn4",
			"pbrMetallicRoughness":{
				"baseColorFactor":[
					0.5,
					0.5,
					0.5,
					1
				],
				"metallicFactor":0,
				"roughnessFactor":0.9207483530044556
			}
		}
	],
	"meshes":[
		{
			"name":"Pared_de_Piedrita1_pasted__pasted__pasted__blinn4_0",
			"primitives":[
				{
					"attributes":{
						"POSITION":0,
						"NORMAL":1,
						"TEXCOORD_0":2
					},
					"indices":3,
					"material":0
				}
			]
		}
	],
	"accessors":[
		{
			"bufferView":0,
			"componentType":5126,
			"count":2422,
			"max":[
				-449.44915771484375,
				237.03163146972656,
				-433.7152099609375
			],
			"min":[
				-605.39208984375,
				0,
				-456.90057373046875
			],
			"type":"VEC3"
		},
		{
			"bufferView":1,
			"componentType":5126,
			"count":2422,
			"type":"VEC3"
		},
		{
			"bufferView":2,
			"componentType":5126,
			"count":2422,
			"type":"VEC2"
		},
		{
			"bufferView":3,
			"componentType":5123,
			"count":3636,
			"type":"SCALAR"
		}
	],
	"bufferViews":[
		{
			"buffer":0,
			"byteLength":29064,
			"byteOffset":0,
			"target":34962
		},
		{
			"buffer":0,
			"byteLength":29064,
			"byteOffset":29064,
			"target":34962
		},
		{
			"buffer":0,
			"byteLength":19376,
			"byteOffset":58128,
			"target":34962
		},
		{
			"buffer":0,
			"byteLength":7272,
			"byteOffset":77504,
			"target":34963
		}
	],
	"buffers":[
		{
			"byteLength":84776,
			"uri":"scene.bin"
		}
	]
}
