{
	"asset":{
		"generator":"Khronos glTF Blender I/O v3.6.27",
		"version":"2.0"
	},
	"scene":0,
	"scenes":[
		{
			"name":"Scene",
			"nodes":[
				2,
				4,
				11
			]
		}
	],
	"nodes":[
		{
			"name":"Object_491"
		},
		{
			"children":[
				0
			],
			"name":"Object_490",
			"rotation":[
				0.70710688829422,
				0,
				0,
				0.7071066498756409
			]
		},
		{
			"children":[
				1
			],
			"name":"Area",
			"scale":[
				150.7503662109375,
				150.7503662109375,
				150.7503662109375
			],
			"translation":[
				-7.882476806640625,
				249.25181579589844,
				185.26898193359375
			]
		},
		{
			"name":"Object_493"
		},
		{
			"children":[
				3
			],
			"name":"Camera",
			"rotation":[
				0.016621839255094528,
				0.6104702949523926,
				0.021554389968514442,
				0.791571319103241
			],
			"scale":[
				100.00001525878906,
				99.99999237060547,
				100.00000762939453
			],
			"translation":[
				-8380.1201171875,
				214.8720703125,
				2154.0390625
			]
		},
		{
			"mesh":0,
			"name":"Object_2"
		},
		{
			"mesh":1,
			"name":"Object_3"
		},
		{
			"mesh":2,
			"name":"Object_4"
		},
		{
			"mesh":3,
			"name":"Object_5"
		},
		{
			"mesh":4,
			"name":"Object_6"
		},
		{
			"children":[
				5,
				6,
				7,
				8,
				9
			],
			"name":"drums.obj.cleaner.materialmerger.gles"
		},
		{
			"children":[
				10
			],
			"name":"Sketchfab_model",
			"rotation":[
				-0.70710688829422,
				0,
				0,
				0.7071066498756409
			],
			"scale":[
				0.07912546396255493,
				0.07912547141313553,
				0.07912547141313553
			],
			"translation":[
				0,
				-0.8242630958557129,
				0
			]
		}
	],
	"materials":[
		{
			"doubleSided":true,
			"name":"cymbal",
			"pbrMetallicRoughness":{
				"baseColorFactor":[
					0.612866222858429,
					0.5004953742027283,
					0.273241251707077,
					1
				],
				"metallicFactor":0.8529343008995056,
				"roughnessFactor":0.4000000059604645
			}
		},
		{
			"doubleSided":true,
			"name":"drum1",
			"pbrMetallicRoughness":{
				"baseColorFactor":[
					0.5555799603462219,
					0.41460099816322327,
					0.2832098603248596,
					1
				],
				"metallicFactor":0,
				"roughnessFactor":0.6000000238418579
			}
		},
		{
			"doubleSided":true,
			"name":"drum2",
			"pbrMetallicRoughness":{
				"baseColorFactor":[
					0.3310827314853668,
					0.0008364879176951945,
					0.0008364879176951945,
					1
				],
				"metallicFactor":0,
				"roughnessFactor":0.6000000238418579
			}
		},
		{
			"doubleSided":true,
			"name":"drum_black",
			"pbrMetallicRoughness":{
				"baseColorFactor":[
					0.057297833263874054,
					0.057297833263874054,
					0.057297833263874054,
					1
				],
				"metallicFactor":0,
				"roughnessFactor":0.6000000238418579
			}
		},
		{
			"doubleSided":true,
			"name":"drum_metal",
			"pbrMetallicRoughness":{
				"baseColorFactor":[
					0.8373390436172485,
					0.8373390436172485,
					0.8373390436172485,
					1
				],
				"roughnessFactor":0.6000000238418579
			}
		}
	],
	"meshes":[
		{
			"name":"Object_0",
			"primitives":[
				{
					"attributes":{
						"POSITION":0,
						"NORMAL":1,
						"TEXCOORD_0":2
					},
					"indices":3,
					"material":0
				}
			]
		},
		{
			"name":"Object_1",
			"primitives":[
				{
					"attributes":{
						"POSITION":4,
						"NORMAL":5,
						"TEXCOORD_0":6
					},
					"indices":7,
					"material":1
				}
			]
		},
		{
			"name":"Object_2",
			"primitives":[
				{
					"attributes":{
						"POSITION":8,
						"NORMAL":9,
						"TEXCOORD_0":10
					},
					"indices":11,
					"material":2
				}
			]
		},
		{
			"name":"Object_3",
			"primitives":[
				{
					"attributes":{
						"POSITION":12,
						"NORMAL":13,
						"TEXCOORD_0":14
					},
					"indices":15,
					"material":3
				}
			]
		},
		{
			"name":"Object_4",
			"primitives":[
				{
					"attributes":{
						"POSITION":16,
						"NORMAL":17,
						"TEXCOORD_0":18
					},
					"indices":19,
					"material":4
				}
			]
		}
	],
	"accessors":[
		{
			"bufferView":0,
			"componentType":5126,
			"count":3560,
			"max":[
				13.46314811706543,
				8.56798267364502,
				25.980518341064453
			],
			"min":[
				-9.960870742797852,
				-1.6970959901809692,
				19.94667625427246
			],
			"type":"VEC3"
		},
		{
			"bufferView":1,
			"componentType":5126,
			"count":3560,
			"type":"VEC3"
		},
		{
			"bufferView":2,
			"componentType":5126,
			"count":3560,
			"type":"VEC2"
		},
		{
			"bufferView":3,
			"componentType":5123,
			"count":4176,
			"type":"SCALAR"
		},
		{
			"bufferView":4,
			"componentType":5126,
			"count":160,
			"max":[
				7.484717845916748,
				10.344464302062988,
				22.316768646240234
			],
			"min":[
				-3.9355340003967285,
				-1.2168669700622559,
				10.969426155090332
			],
			"type":"VEC3"
		},
		{
			"bufferView":5,
			"componentType":5126,
			"count":160,
			"type":"VEC3"
		},
		{
			"bufferView":6,
			"componentType":5126,
			"count":160,
			"type":"VEC2"
		},
		{
			"bufferView":7,
			"componentType":5123,
			"count":420,
			"type":"SCALAR"
		},
		{
			"bufferView":8,
			"componentType":5126,
			"count":646,
			"max":[
				7.489077091217041,
				10.344464302062988,
				22.316768646240234
			],
			"min":[
				-3.9355340003967285,
				-1.2168669700622559,
				10.969426155090332
			],
			"type":"VEC3"
		},
		{
			"bufferView":9,
			"componentType":5126,
			"count":646,
			"type":"VEC3"
		},
		{
			"bufferView":10,
			"componentType":5126,
			"count":646,
			"type":"VEC2"
		},
		{
			"bufferView":11,
			"componentType":5123,
			"count":960,
			"type":"SCALAR"
		},
		{
			"bufferView":12,
			"componentType":5126,
			"count":1357,
			"max":[
				12.4801664352417,
				14.575929641723633,
				25.392465591430664
			],
			"min":[
				-8.766157150268555,
				-1.4369410276412964,
				10.509613037109375
			],
			"type":"VEC3"
		},
		{
			"bufferView":13,
			"componentType":5126,
			"count":1357,
			"type":"VEC3"
		},
		{
			"bufferView":14,
			"componentType":5126,
			"count":1357,
			"type":"VEC2"
		},
		{
			"bufferView":15,
			"componentType":5123,
			"count":2064,
			"type":"SCALAR"
		},
		{
			"bufferView":16,
			"componentType":5126,
			"count":23729,
			"max":[
				12.398907661437988,
				14.384321212768555,
				25.139780044555664
			],
			"min":[
				-8.700409889221191,
				-1.7812639474868774,
				10.538475036621094
			],
			"type":"VEC3"
		},
		{
			"bufferView":17,
			"componentType":5126,
			"count":23729,
			"type":"VEC3"
		},
		{
			"bufferView":18,
			"componentType":5126,
			"count":23729,
			"type":"VEC2"
		},
		{
			"bufferView":19,
			"componentType":5123,
			"count":32760,
			"type":"SCALAR"
		}
	],
	"bufferViews":[
		{
			"buffer":0,
			"byteLength":42720,
			"byteOffset":0,
			"target":34962
		},
		{
			"buffer":0,
			"byteLength":42720,
			"byteOffset":42720,
			"target":34962
		},
		{
			"buffer":0,
			"byteLength":28480,
			"byteOffset":85440,
			"target":34962
		},
		{
			"buffer":0,
			"byteLength":8352,
			"byteOffset":113920,
			"target":34963
		},
		{
			"buffer":0,
			"byteLength":1920,
			"byteOffset":122272,
			"target":34962
		},
		{
			"buffer":0,
			"byteLength":1920,
			"byteOffset":124192,
			"target":34962
		},
		{
			"buffer":0,
			"byteLength":1280,
			"byteOffset":126112,
			"target":34962
		},
		{
			"buffer":0,
			"byteLength":840,
			"byteOffset":127392,
			"target":34963
		},
		{
			"buffer":0,
			"byteLength":7752,
			"byteOffset":128232,
			"target":34962
		},
		{
			"buffer":0,
			"byteLength":7752,
			"byteOffset":135984,
			"target":34962
		},
		{
			"buffer":0,
			"byteLength":5168,
			"byteOffset":143736,
			"target":34962
		},
		{
			"buffer":0,
			"byteLength":1920,
			"byteOffset":148904,
			"target":34963
		},
		{
			"buffer":0,
			"byteLength":16284,
			"byteOffset":150824,
			"target":34962
		},
		{
			"buffer":0,
			"byteLength":16284,
			"byteOffset":167108,
			"target":34962
		},
		{
			"buffer":0,
			"byteLength":10856,
			"byteOffset":183392,
			"target":34962
		},
		{
			"buffer":0,
			"byteLength":4128,
			"byteOffset":194248,
			"target":34963
		},
		{
			"buffer":0,
			"byteLength":284748,
			"byteOffset":198376,
			"target":34962
		},
		{
			"buffer":0,
			"byteLength":284748,
			"byteOffset":483124,
			"target":34962
		},
		{
			"buffer":0,
			"byteLength":189832,
			"byteOffset":767872,
			"target":34962
		},
		{
			"buffer":0,
			"byteLength":65520,
			"byteOffset":957704,
			"target":34963
		}
	],
	"buffers":[
		{
			"byteLength":1023224,
			"uri":"data:application/octet-stream;base64,"
		}
	]
}
