{
	"asset":{
		"generator":"Khronos glTF Blender I/O v3.6.27",
		"version":"2.0"
	},
	"scene":0,
	"scenes":[
		{
			"name":"Scene",
			"nodes":[
				14
			]
		}
	],
	"nodes":[
		{
			"mesh":0,
			"name":"Object_10"
		},
		{
			"mesh":1,
			"name":"Object_11"
		},
		{
			"children":[
				0,
				1
			],
			"name":"FRAME.GEORGE_2",
			"translation":[
				0.7249999046325684,
				0,
				0
			]
		},
		{
			"mesh":2,
			"name":"Object_4"
		},
		{
			"mesh":3,
			"name":"Object_5"
		},
		{
			"children":[
				3,
				4
			],
			"name":"FRAME.JOHN_0",
			"translation":[
				-1.274999976158142,
				0,
				0
			]
		},
		{
			"mesh":4,
			"name":"Object_7"
		},
		{
			"mesh":5,
			"name":"Object_8"
		},
		{
			"children":[
				6,
				7
			],
			"name":"FRAME.PAUL_1",
			"translation":[
				-0.27500003576278687,
				0,
				0
			]
		},
		{
			"mesh":6,
			"name":"Object_13"
		},
		{
			"mesh":7,
			"name":"Object_14"
		},
		{
			"children":[
				9,
				10
			],
			"name":"FRAME.RINGO_3",
			"translation":[
				1.7249999046325684,
				0,
				0
			]
		},
		{
			"children":[
				2,
				5,
				8,
				11
			],
			"name":"GLTF_SceneRootNode",
			"rotation":[
				0.70710688829422,
				0,
				0,
				0.7071066498756409
			]
		},
		{
			"children":[
				12
			],
			"name":"root"
		},
		{
			"children":[
				13
			],
			"name":"Sketchfab_model",
			"rotation":[
				-0.70710688829422,
				0,
				0,
				0.7071066498756409
			],
			"scale":[
				0.42367929220199585,
				0.4236793518066406,
				0.4236793518066406
			],
			"translation":[
				-0.10835050046443939,
				0.3964956998825073,
				0
			]
		}
	],
	"materials":[
		{
			"doubleSided":true,
			"name":"FRAME",
			"pbrMetallicRoughness":{
				"baseColorFactor":[
					0.006453540176153183,
					0.006453540176153183,
					0.006453540176153183,
					1
				],
				"metallicFactor":0,
				"roughnessFactor":0.5
			}
		},
		{
			"doubleSided":true,
			"name":"George",
			"pbrMetallicRoughness":{
				"baseColorTexture":{
					"index":0
				},
				"metallicFactor":0,
				"roughnessFactor":0.10000000149011612
			}
		},
		{
			"doubleSided":true,
			"name":"John",
			"pbrMetallicRoughness":{
				"baseColorTexture":{
					"index":1
				},
				"metallicFactor":0,
				"roughnessFactor":0.10000000149011612
			}
		},
		{
			"doubleSided":true,
			"name":"Paul",
			"pbrMetallicRoughness":{
				"baseColorTexture":{
					"index":2
				},
				"metallicFactor":0,
				"roughnessFactor":0.10000000149011612
			}
		},
		{
			"doubleSided":true,
			"name":"Ringo",
			"pbrMetallicRoughness":{
				"baseColorTexture":{
					"index":3
				},
				"metallicFactor":0,
				"roughnessFactor":0.10000000149011612
			}
		}
	],
	"meshes":[
		{
			"name":"Object_4",
			"primitives":[
				{
					"attributes":{
						"POSITION":0,
						"NORMAL":1,
						"TEXCOORD_0":2,
						"TEXCOORD_1":3
					},
					"indices":4,
					"material":0
				}
			]
		},
		{
			"name":"Object_5",
			"primitives":[
				{
					"attributes":{
						"POSITION":5,
						"NORMAL":6,
						"TEXCOORD_0":7,
						"TEXCOORD_1":8
					},
					"indices":9,
					"material":1
				}
			]
		},
		{
			"name":"Object_0",
			"primitives":[
				{
					"attributes":{
						"POSITION":10,
						"NORMAL":11,
						"TEXCOORD_0":12,
						"TEXCOORD_1":13
					},
					"indices":4,
					"material":0
				}
			]
		},
		{
			"name":"Object_1",
			"primitives":[
				{
					"attributes":{
						"POSITION":14,
						"NORMAL":15,
						"TEXCOORD_0":16,
						"TEXCOORD_1":17
					},
					"indices":9,
					"material":2
				}
			]
		},
		{
			"name":"Object_2",
			"primitives":[
				{
					"attributes":{
						"POSITION":18,
						"NORMAL":19,
						"TEXCOORD_0":20,
						"TEXCOORD_1":21
					},
					"indices":4,
					"material":0
				}
			]
		},
		{
			"name":"Object_3",
			"primitives":[
				{
					"attributes":{
						"POSITION":22,
						"NORMAL":23,
						"TEXCOORD_0":24,
						"TEXCOORD_1":25
					},
					"indices":9,
					"material":3
				}
			]
		},
		{
			"name":"Object_6",
			"primitives":[
				{
					"attributes":{
						"POSITION":26,
						"NORMAL":27,
						"TEXCOORD_0":28,
						"TEXCOORD_1":29
					},
					"indices":4,
					"material":0
				}
			]
		},
		{
			"name":"Object_7",
			"primitives":[
				{
					"attributes":{
						"POSITION":30,
						"NORMAL":31,
						"TEXCOORD_0":32,
						"TEXCOORD_1":33
					},
					"indices":9,
					"material":4
				}
			]
		}
	],
	"textures":[
		{
			"sampler":0,
			"source":0
		},
		{
			"sampler":0,
			"source":1
		},
		{
			"sampler":0,
			"source":2
		},
		{
			"sampler":0,
			"source":3
		}
	],
	"images":[
		{
			"bufferView":10,
			"mimeType":"image/jpeg",
			"name":"Image_2"
		},
		{
			"bufferView":19,
			"mimeType":"image/jpeg",
			"name":"Image_0"
		},
		{
			"bufferView":28,
			"mimeType":"image/jpeg",
			"name":"Image_1"
		},
		{
			"bufferView":37,
			"mimeType":"image/jpeg",
			"name":"Image_3"
		}
	],
	"accessors":[
		{
			"bufferView":0,
			"componentType":5126,
			"count":4853,
			"max":[
				0.4411333203315735,
				0.5041335225105286,
				0.042074594646692276
			],
			"min":[
				-0.44052332639694214,
				-0.5049771070480347,
				-0.02957894280552864
			],
			"type":"VEC3"
		},
		{
			"bufferView":1,
			"componentType":5126,
			"count":4853,
			"type":"VEC3"
		},
		{
			"bufferView":2,
			"componentType":5126,
			"count":4853,
			"type":"VEC2"
		},
		{
			"bufferView":3,
			"componentType":5126,
			"count":4853,
			"type":"VEC2"
		},
		{
			"bufferView":4,
			"componentType":5123,
			"count":7173,
			"type":"SCALAR"
		},
		{
			"bufferView":5,
			"componentType":5126,
			"count":4,
			"max":[
				0.31075426936149597,
				0.3737015426158905,
				-0.023647991940379143
			],
			"min":[
				-0.3100917637348175,
				-0.3746495544910431,
				-0.023648066446185112
			],
			"type":"VEC3"
		},
		{
			"bufferView":6,
			"componentType":5126,
			"count":4,
			"type":"VEC3"
		},
		{
			"bufferView":7,
			"componentType":5126,
			"count":4,
			"type":"VEC2"
		},
		{
			"bufferView":8,
			"componentType":5126,
			"count":4,
			"type":"VEC2"
		},
		{
			"bufferView":9,
			"componentType":5123,
			"count":6,
			"type":"SCALAR"
		},
		{
			"bufferView":11,
			"componentType":5126,
			"count":4853,
			"max":[
				0.4411333203315735,
				0.5041335225105286,
				0.042074594646692276
			],
			"min":[
				-0.44052332639694214,
				-0.5049771070480347,
				-0.02957894280552864
			],
			"type":"VEC3"
		},
		{
			"bufferView":12,
			"componentType":5126,
			"count":4853,
			"type":"VEC3"
		},
		{
			"bufferView":13,
			"componentType":5126,
			"count":4853,
			"type":"VEC2"
		},
		{
			"bufferView":14,
			"componentType":5126,
			"count":4853,
			"type":"VEC2"
		},
		{
			"bufferView":15,
			"componentType":5126,
			"count":4,
			"max":[
				0.31075426936149597,
				0.3737015426158905,
				-0.023647991940379143
			],
			"min":[
				-0.3100917637348175,
				-0.3746495544910431,
				-0.023648066446185112
			],
			"type":"VEC3"
		},
		{
			"bufferView":16,
			"componentType":5126,
			"count":4,
			"type":"VEC3"
		},
		{
			"bufferView":17,
			"componentType":5126,
			"count":4,
			"type":"VEC2"
		},
		{
			"bufferView":18,
			"componentType":5126,
			"count":4,
			"type":"VEC2"
		},
		{
			"bufferView":20,
			"componentType":5126,
			"count":4853,
			"max":[
				0.4411333203315735,
				0.5041335225105286,
				0.042074594646692276
			],
			"min":[
				-0.44052332639694214,
				-0.5049771070480347,
				-0.02957894280552864
			],
			"type":"VEC3"
		},
		{
			"bufferView":21,
			"componentType":5126,
			"count":4853,
			"type":"VEC3"
		},
		{
			"bufferView":22,
			"componentType":5126,
			"count":4853,
			"type":"VEC2"
		},
		{
			"bufferView":23,
			"componentType":5126,
			"count":4853,
			"type":"VEC2"
		},
		{
			"bufferView":24,
			"componentType":5126,
			"count":4,
			"max":[
				0.31075426936149597,
				0.3737015426158905,
				-0.023647991940379143
			],
			"min":[
				-0.3100917637348175,
				-0.3746495544910431,
				-0.023648066446185112
			],
			"type":"VEC3"
		},
		{
			"bufferView":25,
			"componentType":5126,
			"count":4,
			"type":"VEC3"
		},
		{
			"bufferView":26,
			"componentType":5126,
			"count":4,
			"type":"VEC2"
		},
		{
			"bufferView":27,
			"componentType":5126,
			"count":4,
			"type":"VEC2"
		},
		{
			"bufferView":29,
			"componentType":5126,
			"count":4853,
			"max":[
				0.4411333203315735,
				0.5041335225105286,
				0.042074594646692276
			],
			"min":[
				-0.44052332639694214,
				-0.5049771070480347,
				-0.02957894280552864
			],
			"type":"VEC3"
		},
		{
			"bufferView":30,
			"componentType":5126,
			"count":4853,
			"type":"VEC3"
		},
		{
			"bufferView":31,
			"componentType":5126,
			"count":4853,
			"type":"VEC2"
		},
		{
			"bufferView":32,
			"componentType":5126,
			"count":4853,
			"type":"VEC2"
		},
		{
			"bufferView":33,
			"componentType":5126,
			"count":4,
			"max":[
				0.31075426936149597,
				0.3737015426158905,
				-0.023647991940379143
			],
			"min":[
				-0.3100917637348175,
				-0.3746495544910431,
				-0.023648066446185112
			],
			"type":"VEC3"
		},
		{
			"bufferView":34,
			"componentType":5126,
			"count":4,
			"type":"VEC3"
		},
		{
			"bufferView":35,
			"componentType":5126,
			"count":4,
			"type":"VEC2"
		},
		{
			"bufferView":36,
			"componentType":5126,
			"count":4,
			"type":"VEC2"
		}
	],
	"bufferViews":[
		{
			"buffer":0,
			"byteLength":58236,
			"byteOffset":0,
			"target":34962
		},
		{
			"buffer":0,
			"byteLength":58236,
			"byteOffset":58236,
			"target":34962
		},
		{
			"buffer":0,
			"byteLength":38824,
			"byteOffset":116472,
			"target":34962
		},
		{
			"buffer":0,
			"byteLength":38824,
			"byteOffset":155296,
			"target":34962
		},
		{
			"buffer":0,
			"byteLength":14346,
			"byteOffset":194120,
			"target":34963
		},
		{
			"buffer":0,
			"byteLength":48,
			"byteOffset":208468,
			"target":34962
		},
		{
			"buffer":0,
			"byteLength":48,
			"byteOffset":208516,
			"target":34962
		},
		{
			"buffer":0,
			"byteLength":32,
			"byteOffset":208564,
			"target":34962
		},
		{
			"buffer":0,
			"byteLength":32,
			"byteOffset":208596,
			"target":34962
		},
		{
			"buffer":0,
			"byteLength":12,
			"byteOffset":208628,
			"target":34963
		},
		{
			"buffer":0,
			"byteLength":507535,
			"byteOffset":208640
		},
		{
			"buffer":0,
			"byteLength":58236,
			"byteOffset":716176,
			"target":34962
		},
		{
			"buffer":0,
			"byteLength":58236,
			"byteOffset":774412,
			"target":34962
		},
		{
			"buffer":0,
			"byteLength":38824,
			"byteOffset":832648,
			"target":34962
		},
		{
			"buffer":0,
			"byteLength":38824,
			"byteOffset":871472,
			"target":34962
		},
		{
			"buffer":0,
			"byteLength":48,
			"byteOffset":910296,
			"target":34962
		},
		{
			"buffer":0,
			"byteLength":48,
			"byteOffset":910344,
			"target":34962
		},
		{
			"buffer":0,
			"byteLength":32,
			"byteOffset":910392,
			"target":34962
		},
		{
			"buffer":0,
			"byteLength":32,
			"byteOffset":910424,
			"target":34962
		},
		{
			"buffer":0,
			"byteLength":342313,
			"byteOffset":910456
		},
		{
			"buffer":0,
			"byteLength":58236,
			"byteOffset":1252772,
			"target":34962
		},
		{
			"buffer":0,
			"byteLength":58236,
			"byteOffset":1311008,
			"target":34962
		},
		{
			"buffer":0,
			"byteLength":38824,
			"byteOffset":1369244,
			"target":34962
		},
		{
			"buffer":0,
			"byteLength":38824,
			"byteOffset":1408068,
			"target":34962
		},
		{
			"buffer":0,
			"byteLength":48,
			"byteOffset":1446892,
			"target":34962
		},
		{
			"buffer":0,
			"byteLength":48,
			"byteOffset":1446940,
			"target":34962
		},
		{
			"buffer":0,
			"byteLength":32,
			"byteOffset":1446988,
			"target":34962
		},
		{
			"buffer":0,
			"byteLength":32,
			"byteOffset":1447020,
			"target":34962
		},
		{
			"buffer":0,
			"byteLength":442246,
			"byteOffset":1447052
		},
		{
			"buffer":0,
			"byteLength":58236,
			"byteOffset":1889300,
			"target":34962
		},
		{
			"buffer":0,
			"byteLength":58236,
			"byteOffset":1947536,
			"target":34962
		},
		{
			"buffer":0,
			"byteLength":38824,
			"byteOffset":2005772,
			"target":34962
		},
		{
			"buffer":0,
			"byteLength":38824,
			"byteOffset":2044596,
			"target":34962
		},
		{
			"buffer":0,
			"byteLength":48,
			"byteOffset":2083420,
			"target":34962
		},
		{
			"buffer":0,
			"byteLength":48,
			"byteOffset":2083468,
			"target":34962
		},
		{
			"buffer":0,
			"byteLength":32,
			"byteOffset":2083516,
			"target":34962
		},
		{
			"buffer":0,
			"byteLength":32,
			"byteOffset":2083548,
			"target":34962
		},
		{
			"buffer":0,
			"byteLength":517769,
			"byteOffset":2083580
		}
	],
	"samplers":[
		{
			"magFilter":9729,
			"minFilter":9987
		}
	],
	"buffers":[
		{
			"byteLength":2601352,
			"uri":"data:application/octet-stream;base64,"
		}
	]
}
